<svg width="64" height="64" viewBox="0 0 64 64" fill="none" xmlns="http://www.w3.org/2000/svg">
<path d="M56.0463 16.5514H50.5702L37.1347 29.9811C37.5974 31.1605 37.64 32.4632 37.2552 33.6702C36.8704 34.8772 36.0817 35.9149 35.0218 36.6089C33.9618 37.3028 32.6953 37.6106 31.4351 37.4805C30.1749 37.3504 28.998 36.7903 28.1022 35.8945C27.2064 34.9987 26.6463 33.8218 26.5162 32.5616C26.3861 31.3014 26.6939 30.0349 27.3878 28.9749C28.0818 27.915 29.1195 27.1263 30.3265 26.7415C31.5335 26.3567 32.8362 26.3993 34.0156 26.862L47.4482 13.4294V7.95336C47.4485 7.2206 47.7395 6.5179 48.2574 5.99952L53.348 0.908943C53.4422 0.814128 53.5605 0.746773 53.6901 0.714111C53.8197 0.68145 53.9557 0.684718 54.0836 0.723563C54.3455 0.800069 54.5397 1.01782 54.5927 1.28559L55.9462 8.05634L62.7141 9.40991C62.9789 9.46287 63.1966 9.65708 63.2731 9.91897C63.3118 10.0462 63.3152 10.1815 63.2831 10.3105C63.251 10.4395 63.1845 10.5574 63.0907 10.6517L57.9972 15.7422C57.4795 16.2594 56.778 16.5504 56.0463 16.5514Z" fill="#1E1E1E"/>
<path d="M4.41379 32C4.41379 39.3163 7.32019 46.333 12.4936 51.5064C17.667 56.6798 24.6837 59.5862 32 59.5862C35.6227 59.5862 39.2099 58.8727 42.5568 57.4864C45.9037 56.1 48.9448 54.068 51.5064 51.5064C54.068 48.9448 56.1 45.9037 57.4863 42.5568C58.8727 39.2099 59.5862 35.6227 59.5862 32C59.5862 29.3576 59.2155 26.8035 58.524 24.3877C58.3865 23.833 58.4696 23.2466 58.7557 22.7519C59.0418 22.2572 59.5087 21.8928 60.058 21.7354C60.6074 21.5779 61.1964 21.6397 61.7011 21.9078C62.2058 22.1758 62.5869 22.6291 62.7641 23.1724C63.5704 25.9796 64 28.9398 64 32C64 49.6728 49.6728 64 32 64C14.3272 64 0 49.6728 0 32C0 14.3272 14.3272 1.5542e-05 32 1.5542e-05C34.9867 -0.00292699 37.9557 0.41197 40.8276 1.23294C41.1076 1.31148 41.3693 1.4446 41.5977 1.62464C41.8261 1.80468 42.0167 2.02809 42.1585 2.28203C42.3002 2.53596 42.3904 2.81541 42.4238 3.10431C42.4572 3.39321 42.4332 3.68587 42.3531 3.96546C42.2731 4.24504 42.1385 4.50604 41.9572 4.73346C41.7759 4.96087 41.5515 5.15021 41.2968 5.29059C41.0421 5.43097 40.7621 5.51962 40.4731 5.55145C40.184 5.58328 39.8915 5.55766 39.6123 5.47606C37.1367 4.76943 34.5745 4.4119 32 4.41381C24.6837 4.41381 17.667 7.3202 12.4936 12.4936C7.32019 17.667 4.41379 24.6837 4.41379 32Z" fill="#1E1E1E"/>
<path d="M17.6558 32.0001C17.6641 33.949 18.0694 35.8758 18.8471 37.6628C19.6248 39.4498 20.7586 41.0596 22.1792 42.3938C23.5999 43.728 25.2775 44.7587 27.1098 45.4229C28.942 46.0871 30.8904 46.371 32.836 46.257C34.7816 46.1431 36.6835 45.6338 38.4257 44.7603C40.1679 43.8868 41.7138 42.6673 42.969 41.1764C44.2242 39.6855 45.1623 37.9544 45.7262 36.0889C46.29 34.2233 46.4677 32.2624 46.2484 30.3258C46.1866 29.9336 46.2321 29.532 46.3799 29.1635C46.5278 28.795 46.7726 28.4734 47.0884 28.2328C47.4042 27.9921 47.7792 27.8413 48.1737 27.7964C48.5681 27.7515 48.9674 27.8141 49.3292 27.9777C50.0678 28.3072 50.5651 29.0105 50.6298 29.8167C51.0867 33.6869 50.3265 37.6032 48.455 41.0214C46.5834 44.4396 43.6934 47.1898 40.1867 48.8898C36.68 50.5897 32.7308 51.155 28.888 50.507C25.0453 49.8589 21.4999 48.0298 18.7446 45.2738C15.9901 42.5209 14.1605 38.979 13.5096 35.1394C12.8587 31.2998 13.4188 27.3528 15.1121 23.8459C16.8054 20.3389 19.5481 17.4458 22.9597 15.5678C26.3713 13.6898 30.2828 12.92 34.1517 13.3651C34.4441 13.3922 34.7283 13.4775 34.9874 13.6158C35.2464 13.7542 35.4753 13.9429 35.6605 14.1708C35.8458 14.3988 35.9836 14.6614 36.066 14.9434C36.1484 15.2253 36.1737 15.5209 36.1404 15.8127C36.1071 16.1045 36.0159 16.3868 35.8721 16.6429C35.7283 16.899 35.5349 17.1239 35.303 17.3043C35.0712 17.4846 34.8057 17.6169 34.5221 17.6934C34.2385 17.7698 33.9425 17.7889 33.6514 17.7494C31.6418 17.5171 29.6057 17.7124 27.6768 18.3225C25.7479 18.9325 23.9699 19.9436 22.4594 21.2894C20.9488 22.6351 19.74 24.2851 18.9121 26.131C18.0843 27.9769 17.6562 29.9771 17.6558 32.0001Z" fill="#1E1E1E"/>
</svg>
