<svg width="63" height="63" viewBox="0 0 63 63" fill="none" xmlns="http://www.w3.org/2000/svg">
<rect x="2.65224" y="2.32607" width="57.8783" height="57.8783" rx="28.9391" stroke="#CBEFFB" stroke-width="3.61739"/>
<g clip-path="url(#clip0_1214_1242)">
<path d="M44.0913 41.7207C43.8976 42.1457 43.5618 42.2658 43.1085 42.2651C36.8925 42.2553 30.677 42.2586 24.4609 42.2586C23.7912 42.2586 23.5375 42.0034 23.5369 41.3278C23.5369 40.6699 23.5369 40.0119 23.5369 39.3259C23.651 39.3259 23.7455 39.3259 23.8408 39.3259C28.8198 39.3259 33.7994 39.3213 38.7784 39.3305C39.5049 39.3318 40.1048 39.0961 40.6239 38.5929C42.0475 37.2124 43.0851 35.5727 43.8924 33.7751C43.955 33.6361 44.0248 33.5004 44.0913 33.3633C44.0913 36.1491 44.0913 38.9349 44.0913 41.7207Z" fill="#CBEFFB"/>
<path d="M44.0912 24.6639C37.251 24.6639 30.4109 24.6639 23.557 24.6639C23.5492 24.598 23.5374 24.5444 23.5374 24.4903C23.5361 23.8304 23.5342 23.1711 23.5374 22.5112C23.54 22.0328 23.8374 21.7332 24.3141 21.7319C25.4201 21.7293 26.5268 21.7312 27.6328 21.7312C27.7208 21.7312 27.8095 21.7312 27.9302 21.7312C27.9302 21.4917 27.9282 21.2671 27.9308 21.0426C27.936 20.5857 28.2386 20.2652 28.6619 20.2652C29.0851 20.2652 29.3877 20.585 29.3942 21.0426C29.3975 21.2613 29.3948 21.4799 29.3948 21.7149C30.6163 21.7149 31.8227 21.7149 33.0565 21.7149C33.0565 21.4858 33.0539 21.2606 33.0572 21.0348C33.0637 20.5818 33.3728 20.2613 33.7967 20.2652C34.2108 20.2691 34.5128 20.5837 34.5212 21.0256C34.5258 21.2521 34.5219 21.478 34.5219 21.7175C35.7596 21.7175 36.9765 21.7175 38.2325 21.7175C38.2325 21.5001 38.2305 21.2763 38.2331 21.0517C38.2371 20.5916 38.5331 20.2704 38.9551 20.2652C39.3887 20.26 39.692 20.5831 39.6972 21.057C39.6991 21.2684 39.6978 21.4799 39.6978 21.7312C39.7904 21.7312 39.8759 21.7312 39.9606 21.7312C41.0184 21.7312 42.0761 21.7462 43.1332 21.724C43.5826 21.7149 43.906 21.8513 44.0919 22.2684C44.0912 23.0667 44.0912 23.8656 44.0912 24.6639Z" fill="#CBEFFB"/>
<path d="M23.5205 26.1423C30.3633 26.1423 37.193 26.1423 44.0658 26.1423C44.0391 26.5823 44.026 27.017 43.9837 27.4497C43.7789 29.5626 43.2794 31.5997 42.3749 33.5272C41.6992 34.9665 40.8424 36.2824 39.7266 37.4246C39.4279 37.7301 39.1077 37.8678 38.6721 37.8672C32.4403 37.8561 26.2092 37.8587 19.9775 37.862C19.6658 37.862 19.3958 37.7986 19.2152 37.5225C19.0228 37.2282 19.0554 36.8639 19.3162 36.6061C21.628 34.3229 22.7927 31.4849 23.2949 28.3329C23.3986 27.6834 23.4305 27.0229 23.4957 26.3669C23.5023 26.2964 23.5114 26.2246 23.5205 26.1423Z" fill="#CBEFFB"/>
</g>
<defs>
<clipPath id="clip0_1214_1242">
<rect width="25" height="22" fill="white" transform="translate(19.0913 20.2651)"/>
</clipPath>
</defs>
</svg>
