<svg width="62" height="63" viewBox="0 0 62 63" fill="none" xmlns="http://www.w3.org/2000/svg">
<rect x="1.96962" y="2.32607" width="57.8783" height="57.8783" rx="28.9391" stroke="#CBEFFB" stroke-width="3.61739"/>
<path fill-rule="evenodd" clip-rule="evenodd" d="M39.6586 26.4852C39.6586 31.4967 34.1899 37.8278 30.9086 37.8278C27.6274 37.8278 22.1586 31.4967 22.1586 26.4852C22.1586 21.4737 26.0761 17.4111 30.9086 17.4111C35.7411 17.4111 39.6586 21.4737 39.6586 26.4852ZM33.8253 26.1611C33.8253 27.772 32.5194 29.0778 30.9086 29.0778C29.2978 29.0778 27.9919 27.772 27.9919 26.1611C27.9919 24.5503 29.2978 23.2445 30.9086 23.2445C32.5194 23.2445 33.8253 24.5503 33.8253 26.1611ZM21.9157 36.3695L23.8654 36.3695C26.1507 38.9455 28.852 40.7445 30.9088 40.7445C32.9655 40.7445 35.6669 38.9455 37.9522 36.3695L39.9018 36.3695C41.0793 36.3695 42.1413 37.0775 42.5942 38.1643L43.8094 41.081C44.6099 43.0022 43.1984 45.1195 41.1171 45.1195L20.7005 45.1195C18.6192 45.1195 17.2077 43.0022 18.0082 41.081L19.2234 38.1643C19.6763 37.0775 20.7383 36.3695 21.9157 36.3695Z" fill="#CBEFFB"/>
</svg>
