<svg width="100" height="146" viewBox="0 0 100 146" fill="none" xmlns="http://www.w3.org/2000/svg">
<path d="M51.4939 3.1249e-09C51.5251 3.1268e-09 51.546 3.12807e-09 51.5772 3.12996e-09C52.4938 1.16653 53.5874 2.15599 54.7539 3.07255C56.6808 4.57237 58.8056 5.77014 60.9824 6.86376C64.2216 8.48857 67.492 10.0405 70.5958 11.9152C71.377 12.3839 72.106 12.9151 72.8351 13.4463C72.9184 13.5088 73.0017 13.5713 73.0955 13.6234C73.6683 14.0087 74.0225 13.9567 74.4807 13.4255C74.7828 13.0714 75.1057 12.7381 75.4806 12.4569C76.6576 11.5611 77.772 11.6132 78.8657 12.6339C79.6572 13.363 80.2613 14.2379 80.8863 15.1024C84.3129 19.831 87.073 24.9345 89.5831 30.1943C90.1976 31.4858 90.8851 32.7565 91.4892 34.0585C91.7704 34.6625 92.1661 34.7459 92.7077 34.3293C93.1973 33.9439 93.6451 33.496 94.1347 33.1106C95.072 32.3712 95.145 32.3816 95.6657 33.4023C97.426 36.8602 98.5821 40.5056 99.0403 44.3697C99.5715 48.8692 99.0611 53.2541 97.8425 57.5869C97.6655 58.2014 97.4884 58.8159 97.4051 59.4513C97.301 60.222 97.5821 60.774 98.2904 61.1073C98.457 61.1907 98.6341 61.2427 98.8112 61.3052C99.4673 61.5239 99.9465 62.1176 99.9881 62.805C100.071 64.2424 99.7069 65.586 99.1965 66.8983C96.9989 72.5018 94.0514 77.6679 90.3331 82.4069C90.0831 82.7193 89.729 82.8756 89.4269 83.1151C88.0521 84.2192 87.1876 85.6565 86.6043 87.2917C86.1356 88.5936 85.8648 89.9581 85.5211 91.3017C84.9691 93.5201 84.0213 95.5303 82.3548 97.1551C81.0008 98.4675 79.376 99.3215 77.5533 99.7173C75.1473 100.238 73.1684 101.446 71.5332 103.248C70.2416 104.665 68.7627 105.821 66.9816 106.539C64.8673 107.404 62.6592 107.539 60.4303 107.227C58.0035 106.883 55.6392 106.227 53.2645 105.623C49.8899 104.758 46.5674 104.915 43.2762 105.956C40.8598 106.727 38.3913 107.3 35.8812 107.623C33.5169 107.925 31.1109 107.289 29.2361 105.821C27.8821 104.758 26.6322 103.592 25.3199 102.477C23.9034 101.269 22.2474 100.353 20.4351 99.9361C19.1852 99.6444 18.0291 99.1549 17.0084 98.3633C15.7065 97.353 14.9566 95.999 14.6962 94.395C14.0713 90.5934 12.6235 87.1251 10.5717 83.8755C9.37391 81.9799 7.94698 80.2613 6.58256 78.4907C4.02036 75.1682 2.34349 71.4082 1.18737 67.3878C0.729095 65.8047 0.374963 64.1903 0.0729156 62.5655C0.0520848 62.4717 0.0208309 62.3884 -3.78035e-09 62.2947C-3.75949e-09 61.951 -3.73863e-09 61.6073 -3.71714e-09 61.2531C0.291632 60.2324 1.05196 59.8471 2.0206 59.7325C2.06226 59.7325 2.10397 59.7221 2.13521 59.7221C3.14551 59.5763 3.44752 59.1492 3.20797 58.1493C3.07257 57.5973 2.9059 57.0453 2.72884 56.5037C1.51023 52.7958 0.791603 49.0254 1.07282 45.0884C1.24988 42.6303 1.61441 40.2244 2.4893 37.9122C2.96841 36.6311 3.56208 35.3916 4.36407 34.2668C5.08273 33.2669 5.81183 33.1002 6.92629 33.6418C7.28041 33.8189 7.64496 33.996 7.97825 34.2043C8.29072 34.4022 8.45733 34.3813 8.59273 34.0168C8.86353 33.3294 9.18645 32.6524 9.47808 31.9649C10.8842 28.6737 12.2486 25.3616 14.0296 22.2474C15.4565 19.7581 17.0293 17.3729 18.9874 15.269C20.4872 13.6546 22.1536 12.2381 24.0493 11.082C25.1012 10.4363 25.5282 10.5196 26.2469 11.5299C26.6427 12.0819 26.9864 12.6652 27.3822 13.2172C27.7051 13.665 28.3091 13.7275 28.7153 13.3526C29.2569 12.8526 29.7778 12.3423 30.3089 11.8423C32.6837 9.63427 35.4021 7.9678 38.4225 6.79086C39.9744 6.18676 41.6097 5.85346 43.1928 5.32228C46.4112 4.2599 49.2442 2.58303 51.4939 3.1249e-09ZM95.4054 48.0568C95.4366 47.1402 95.3741 45.9945 95.2179 44.8593C94.9992 43.2345 94.7075 41.6305 94.1555 40.0786C93.8639 39.2453 93.4264 39.0787 92.5932 39.3912C92.0099 39.6203 91.4475 39.9015 90.9163 40.2244C90.6247 40.4014 90.4892 40.339 90.3538 40.0369C89.6352 38.4642 88.9061 36.8914 88.1458 35.3395C85.7606 30.5068 83.1568 25.7886 80.73 20.9767C80.1259 19.7789 79.4385 18.6228 78.4594 17.6646C78.1366 17.3521 77.7929 16.9667 77.2929 17.1021C76.793 17.2375 76.7096 17.7583 76.6159 18.1957C76.4388 19.0186 76.3138 19.8414 76.1576 20.6642C76.1368 20.7788 76.1577 20.935 76.0118 20.9663C75.8973 20.9871 75.8347 20.8621 75.7618 20.7892C74.939 19.9455 74.085 19.1644 73.1788 18.4041C69.398 15.2274 65.1485 12.8214 60.6907 10.7487C59.1805 10.0509 57.639 9.43637 56.1704 8.63438C54.6602 7.81157 53.2437 6.85335 52.0147 5.62433C51.4522 5.06189 51.1189 4.9994 50.5357 5.31187C47.2965 7.02 43.9844 8.5719 40.6306 10.0405C37.1623 11.5611 33.9231 13.4671 31.0276 15.9044C29.2257 17.425 27.5176 19.0498 25.6949 20.5392C25.6116 20.6121 25.5282 20.7684 25.4032 20.7059C25.2887 20.6434 25.3408 20.4871 25.3408 20.3726C25.3408 19.5393 25.3512 18.6957 25.3303 17.8625C25.3199 17.3 25.2575 16.748 24.9762 16.2377C24.695 15.7273 24.2576 15.5815 23.7264 15.8106C23.3827 15.9564 23.0806 16.1856 22.8098 16.446C22.1953 17.0396 21.6537 17.6958 21.1225 18.3624C17.5813 22.7056 14.9253 27.5905 12.6027 32.6524C11.4987 35.0583 10.5196 37.5164 9.57178 39.9952C9.4468 40.3285 9.3218 40.2869 9.10308 40.0786C8.75937 39.7453 8.40527 39.412 8.03032 39.1308C6.95753 38.3184 6.39512 38.485 5.90559 39.7453C5.5723 40.6202 5.34311 41.5159 5.1348 42.4325C4.36406 45.7654 4.19741 49.1192 4.9369 52.4834C5.57224 55.3684 6.67629 58.1285 7.4887 60.9615C7.64493 61.5031 7.59288 61.7114 7.06169 61.9197C6.61383 62.0968 6.15552 62.2426 5.72849 62.4405C4.60362 62.9613 4.40572 63.3362 4.55154 64.5757C4.56195 64.659 4.58282 64.7319 4.59324 64.8152C5.14526 67.4191 5.99929 69.9188 7.16582 72.3143C8.78021 75.6368 10.905 78.5948 13.4359 81.2716C15.2795 83.2193 16.3627 85.5211 16.6855 88.1874C16.8209 89.3019 17.0188 90.3955 17.3417 91.4683C17.9354 93.4472 19.154 94.8637 21.0808 95.6761C21.9349 96.0303 22.789 96.374 23.6951 96.5198C25.1116 96.7593 26.174 97.3947 26.9968 98.6237C27.9863 100.092 29.4861 101.03 31.0276 101.884C31.9962 102.425 32.9545 102.488 33.9648 102.019C35.7354 101.196 37.5581 100.478 39.4329 99.9048C43.3595 98.7174 47.359 98.2071 51.4522 98.53C54.9414 98.8112 58.2952 99.6548 61.5344 100.978C62.5967 101.415 63.607 101.946 64.7006 102.3C67.2003 103.092 69.3355 102.311 70.7312 100.092C71.0958 99.5194 71.3561 98.8841 71.679 98.2904C72.2102 97.3114 72.9809 96.6552 74.137 96.5302C74.4182 96.499 74.6891 96.4781 74.9703 96.4365C77.5637 96.0615 79.6468 94.8846 80.9904 92.5723C81.6986 91.3537 82.1048 90.0206 82.3652 88.6353C82.8235 86.1981 83.7088 83.9484 85.292 82.0215C85.9794 81.1779 86.7709 80.4175 87.4792 79.5843C89.229 77.5012 90.7184 75.2306 92.1974 72.9497C93.4577 71.0124 94.52 68.971 95.1658 66.7421C95.4053 65.8984 95.6657 65.0548 95.6345 64.159C95.6032 63.4612 95.2699 63.1175 94.5825 63.055C94.395 63.0342 94.2076 63.0134 94.0305 62.9821C93.0515 62.8363 92.7077 62.3572 92.9681 61.399C93.1764 60.6074 93.4577 59.8262 93.6972 59.0346C94.7179 55.5351 95.447 51.973 95.4054 48.0568Z" fill="#0017AF"/>
<path d="M17.123 55.4415C17.1334 53.7542 17.7167 52.4315 18.779 51.317C19.3831 50.6817 20.0497 50.0984 20.6642 49.4735C21.6641 48.4736 22.6431 47.4633 23.6222 46.453C23.6638 46.4114 23.6951 46.3697 23.7264 46.328C23.9763 45.9635 24.1534 45.5677 23.893 45.1407C23.6222 44.6928 23.1744 44.7449 22.7473 44.8074C22.4349 44.8595 22.1432 44.9949 21.8516 45.1407C21.0496 45.5365 20.258 45.9323 19.456 46.328C19.3623 46.3697 19.2581 46.4634 19.1644 46.401C19.0603 46.328 19.1332 46.2031 19.154 46.1093C19.8102 43.7867 20.6642 41.5474 21.9349 39.4643C22.5286 38.5061 23.3201 37.8395 24.3408 37.402C26.1219 36.6313 27.9029 35.8397 29.6735 35.0481C30.2776 34.7773 30.8297 34.4232 31.0276 33.7254C31.1734 33.2046 30.9755 32.8296 30.4547 32.6734C30.0277 32.5484 29.5902 32.5276 29.1528 32.4964C28.8611 32.4755 28.5695 32.4339 28.33 32.236C28.1321 32.0797 28.0592 31.9339 28.2883 31.7256C29.6632 30.4341 31.0276 29.1322 32.4337 27.8615C34.8188 25.7055 37.6101 24.1848 40.3598 22.5809C43.5469 20.7269 46.7444 18.8938 49.9316 17.0503C50.0253 16.9982 50.1191 16.9461 50.2128 16.894C50.9002 16.5295 51.1294 16.592 51.5772 17.2273C52.4 18.3939 53.5458 19.1646 54.7852 19.7999C57.8265 21.3518 60.6803 23.2058 63.3883 25.2889C66.1068 27.3824 68.7106 29.6321 71.3665 31.8089C71.8873 32.236 72.4185 32.663 72.9497 33.09C73.033 33.1525 73.158 33.2046 73.1163 33.3296C73.0851 33.4233 72.9705 33.4337 72.8768 33.465C72.3144 33.6004 71.7415 33.6004 71.1686 33.6004C70.7624 33.6004 70.3458 33.5796 70.1792 34.0795C70.0229 34.5378 70.1688 34.944 70.6167 35.2981C70.8979 35.5064 71.2103 35.6626 71.5228 35.8085C71.9186 35.9959 72.2935 36.2251 72.6372 36.5063C72.8976 36.725 73.1788 36.9125 73.5017 36.9958C76.3659 37.7353 78.2616 39.6309 79.7197 42.089C80.4801 43.3596 81.1258 44.6824 81.8445 45.9739C81.8965 46.0677 81.9486 46.1614 81.9694 46.2656C82.0007 46.453 82.0319 46.6613 81.8965 46.7967C81.7403 46.953 81.5736 46.7863 81.4278 46.7134C80.4071 46.2656 79.3864 45.7969 78.3449 45.4011C78.1678 45.3386 78.0012 45.2761 77.8033 45.2657C77.2929 45.2448 76.9701 45.5885 77.0534 46.0989C77.095 46.3489 77.1887 46.5884 77.3241 46.7967C78.5115 48.7236 79.7301 50.6296 81.1362 52.4002C82.3756 53.9626 83.1047 55.7436 83.136 57.7642C83.1464 58.2954 83.1047 58.8266 82.9901 59.3473C82.7506 60.5034 82.8339 61.6804 82.8964 62.8469C82.9381 63.6801 82.9797 64.5238 82.8756 65.357C82.8652 65.4404 82.886 65.5653 82.7922 65.607C82.6672 65.6591 82.6048 65.5341 82.5318 65.4612C81.9694 64.8988 81.407 64.3259 80.8446 63.7635C80.5946 63.5135 80.3238 63.3052 80.0009 63.1698C79.3551 62.899 78.7302 63.2739 78.7094 63.9822C78.6677 65.232 78.9177 66.4194 79.4281 67.5547C80.2821 69.4607 80.2925 71.3251 79.1052 73.1061C78.7198 73.679 78.2823 74.2101 77.8449 74.7517C74.9494 78.3659 71.8873 81.8342 68.6586 85.1672C67.5753 86.2816 66.4609 87.3752 65.3777 88.4897C64.4299 89.4687 63.3258 89.7916 62.0031 89.5625C59.3367 89.1042 56.6704 88.7397 53.9728 88.4897C51.7022 88.2814 49.4317 88.1772 47.1611 88.2397C44.0365 88.3335 40.9743 88.8334 37.9226 89.4688C37.506 89.5521 37.0893 89.6562 36.6623 89.6666C35.7249 89.7083 34.9854 89.3438 34.3813 88.6459C30.9442 84.7089 27.5072 80.7719 24.0701 76.8244C23.2264 75.8558 22.3515 74.908 21.737 73.7519C20.6538 71.7 20.7371 69.669 21.9349 67.7213C22.539 66.7319 22.7577 65.6487 22.9452 64.555C23.0598 63.8572 22.7786 63.3989 22.2161 63.1594C21.7058 62.9511 21.1954 63.1281 20.7579 63.6802C20.133 64.4613 19.6331 65.3258 19.0706 66.1486C18.9977 66.2528 18.9561 66.4298 18.8103 66.4194C18.6332 66.409 18.6228 66.2111 18.5707 66.0861C18.2374 65.2841 18.2791 64.4196 18.1645 63.576C17.852 61.2533 17.5396 58.9411 17.2376 56.6185C17.1959 56.181 17.1125 55.754 17.123 55.4415ZM77.6887 56.6081C77.7408 53.9938 77.22 50.6713 76.4597 48.0987C73.9392 39.6205 68.7627 33.3504 60.7845 29.4863C56.7329 27.5282 52.4209 26.872 47.9631 27.3303C44.3073 27.7053 40.9014 28.8822 37.7351 30.7257C33.0169 33.4858 29.2466 37.1833 26.601 41.9952C24.4659 45.8802 23.341 50.0464 23.091 54.4521C22.9556 56.858 23.0598 59.264 23.3931 61.6596C23.8097 64.6696 24.5804 67.5755 25.8615 70.3356C27.8196 74.5122 30.5693 78.0847 34.121 81.0114C38.4746 84.6048 43.4532 86.6358 49.1192 86.917C52.0876 87.0628 54.983 86.6462 57.8056 85.7192C62.3884 84.2194 66.2942 81.6572 69.6272 78.1784C71.4707 76.2516 72.9913 74.0956 74.2099 71.7209C76.5742 67.1172 77.6991 62.2116 77.6887 56.6081Z" fill="#0017AF"/>
<path d="M25.1843 28.0699C25.1531 26.0285 26.0176 24.4974 27.4028 23.2163C29.4442 21.3207 31.5586 19.5188 33.8188 17.8836C37.4329 15.2589 41.3074 13.1029 45.5048 11.551C46.4631 11.1969 47.2963 10.6241 48.1712 10.1033C48.6503 9.81166 49.1398 9.55127 49.6606 9.34296C50.6605 8.95759 51.6083 9.05133 52.5145 9.64501C52.9832 9.95747 53.4206 10.3012 53.8372 10.6761C54.7537 11.5094 55.7745 12.1551 56.8993 12.6655C61.8362 14.9048 66.3357 17.8524 70.4914 21.3207C71.5226 22.1852 72.5329 23.0601 73.5015 23.9975C75.0013 25.4556 75.6471 27.2575 75.7617 29.2989C75.7825 29.7364 75.8137 30.1738 75.8346 30.6113C75.8346 30.705 75.8658 30.8092 75.7617 30.8612C75.6575 30.9133 75.595 30.8196 75.5221 30.7571C74.4806 29.8509 73.4286 28.9448 72.3871 28.0387C70.0853 26.0285 67.8981 23.8725 65.4608 22.029C62.5029 19.7896 59.3678 17.8315 55.9932 16.2901C54.6079 15.6651 53.3998 14.7798 52.2437 13.8008C52.1395 13.7174 52.0457 13.6237 51.9416 13.5404C50.9834 12.7905 50.2751 12.728 49.2232 13.3425C47.9316 14.0924 46.6297 14.8111 45.2965 15.4881C43.2863 16.5192 41.2658 17.5399 39.2452 18.5502C36.6101 19.873 34.2562 21.6019 32.0481 23.5392C29.8296 25.4765 27.8507 27.6533 25.8197 29.7885C25.7364 29.8822 25.6843 30.0592 25.5176 29.9968C25.3926 29.9551 25.4135 29.7885 25.3822 29.6843C25.2468 29.1219 25.1739 28.5594 25.1843 28.0699Z" fill="#0017AF"/>
<path d="M24.82 93.2393C22.9244 93.2289 21.8099 92.2811 20.935 90.9479C19.8518 89.3022 19.3623 87.4587 19.1435 85.5423C18.9248 83.6258 18.2687 81.949 16.9563 80.5116C15.5502 78.9597 14.3212 77.2724 13.1859 75.5122C11.8424 73.4291 10.6967 71.2419 9.73844 68.9505C9.68636 68.8255 9.54054 68.6797 9.66552 68.5547C9.75926 68.461 9.91548 68.5755 10.0405 68.6068C13.3526 69.6379 15.9981 71.596 18.1958 74.2832C22.4244 79.4492 26.5906 84.6674 30.8401 89.823C31.6629 90.8229 31.5067 91.2708 30.2881 91.6561C28.9965 92.0623 27.7154 92.5206 26.4239 92.9476C25.8407 93.1351 25.2366 93.208 24.82 93.2393Z" fill="#0017AF"/>
<path d="M73.2516 93.3429C72.2309 93.3429 71.2415 93.0929 70.2833 92.7909C69.3146 92.4888 68.3668 92.1451 67.3982 91.8431C67.0649 91.7389 67.0648 91.6348 67.3044 91.3952C71.2102 87.4998 74.7306 83.2712 78.1573 78.9488C80.2821 76.272 82.386 73.5744 84.6565 71.0122C86.1564 69.3145 88.0623 68.1792 90.2183 67.471C90.5829 67.3564 90.5621 67.5439 90.4996 67.7938C89.7601 71.0018 88.3436 73.866 86.2605 76.4178C85.3752 77.501 84.3441 78.4488 83.3755 79.4591C81.7819 81.1152 80.6153 83.0004 80.2091 85.3022C80.1258 85.7605 80.105 86.2292 80.0112 86.6874C79.5321 88.8122 78.4802 90.6245 76.8762 92.093C75.8555 93.0096 74.6056 93.3429 73.2516 93.3429Z" fill="#0017AF"/>
<path d="M92.1348 49.6919C92.166 52.6603 91.6036 55.535 90.8641 58.3888C90.6141 59.3575 90.4267 60.3365 90.208 61.3051C89.7184 63.4403 88.354 64.6902 86.1876 65.0339C85.8959 65.0755 85.7918 64.9818 85.8126 64.7006C85.9376 62.5758 86.0626 60.4615 86.1771 58.3367C86.2396 57.139 86.3647 55.9516 86.3438 54.7538C86.2917 51.2542 87.6562 48.3483 89.9788 45.8278C90.3746 45.4008 90.7808 44.9737 91.187 44.5571C91.4578 44.2759 91.5099 44.2967 91.5932 44.6717C91.9785 46.3173 92.166 47.9942 92.1348 49.6919Z" fill="#0017AF"/>
<path d="M12.2483 43.2554C12.2483 42.1514 12.5712 41.2869 12.9774 40.4433C14.6543 36.9228 16.1333 33.3191 17.9352 29.8508C18.7892 28.1947 19.7579 26.6012 20.7681 25.0388C21.0389 24.6118 21.3723 24.2264 21.7681 23.914C22.0909 23.6536 22.1639 23.6744 22.2368 24.091C22.518 25.7158 22.4554 27.3198 21.9347 28.8926C20.8411 32.1942 19.4871 35.3918 18.0602 38.5581C16.8936 41.1515 15.7063 43.745 14.5293 46.3384C14.2898 46.8592 14.2793 46.8592 13.8731 46.453C13.4878 46.078 13.1232 45.7031 12.842 45.2344C12.4567 44.5782 12.2171 43.8908 12.2483 43.2554Z" fill="#0017AF"/>
<path d="M7.6969 46.4738C7.6969 45.7656 7.6969 45.2031 7.6969 44.6511C7.6969 44.5261 7.63442 44.3595 7.78024 44.2866C7.90522 44.2241 7.99895 44.3491 8.09269 44.4116C10.0091 45.7343 11.3736 47.4424 11.9568 49.7442C12.8317 53.2022 13.467 56.7017 13.8732 60.2534C14.0607 61.9303 14.2274 63.6072 14.4149 65.2841C14.4565 65.6903 14.3315 66.0756 14.3315 66.4714C14.3315 66.6277 14.2378 66.7631 14.092 66.8047C13.9045 66.8672 13.842 66.6901 13.7587 66.586C11.7902 63.9925 10.3528 61.1387 9.37377 58.0349C8.41555 54.9624 7.92602 51.8065 7.74896 48.5881C7.72813 47.8382 7.72814 47.0779 7.6969 46.4738Z" fill="#0017AF"/>
<path d="M79.1156 26.2989C79.1156 26.2052 79.1052 26.1635 79.1156 26.1218C79.1468 25.8927 78.9906 25.5594 79.2197 25.4657C79.4072 25.3824 79.5635 25.7052 79.7197 25.8511C80.5842 26.6843 81.0424 27.7675 81.5111 28.8403C83.3338 32.944 85.1461 37.0581 86.9688 41.1721C87.0521 41.37 87.125 41.5679 87.2188 41.7658C87.7291 42.8386 87.5625 43.776 86.6876 44.578C86.3127 44.9217 85.9481 45.2654 85.5732 45.6091C85.4065 45.7653 85.2815 45.807 85.1461 45.5466C82.8026 40.9743 80.5737 36.3498 79.6155 31.2358C79.303 29.5902 79.1573 27.9237 79.1156 26.2989Z" fill="#0017AF"/>
<path d="M50.7544 38.0583C52.8271 38.0062 54.8372 38.3499 56.7536 39.1519C58.8263 40.0164 60.5449 41.3495 61.9926 43.0368C63.7841 45.1303 65.1693 47.4634 66.1171 50.0464C66.815 51.942 67.0649 53.9418 67.1378 55.952C67.2628 59.4411 66.5962 62.7741 64.9193 65.8362C62.3155 70.5752 58.493 73.8248 53.0666 74.8143C48.3588 75.6684 44.0885 74.5123 40.4327 71.4397C36.6206 68.2318 34.4959 64.0448 33.8189 59.1391C33.0481 53.546 34.4854 48.5049 37.9642 44.068C40.7243 40.5476 44.3385 38.5478 48.8067 38.1208C49.14 38.0895 49.4732 38.0583 49.7961 38.0479C50.119 38.0479 50.4419 38.0583 50.7544 38.0583ZM60.1491 52.2024C60.0553 52.0878 59.9408 52.0878 59.8366 52.067C58.8992 51.8483 57.9722 51.6296 57.0349 51.4213C55.4517 51.0567 53.8686 50.7338 52.2958 50.3381C51.296 50.0881 51.0564 49.6506 51.1918 48.6299C51.473 46.4531 51.6709 44.2659 51.848 42.089C51.8584 41.9224 51.9417 41.7037 51.6917 41.6099C51.4418 41.5162 51.3689 41.7245 51.2647 41.8703C50.0357 43.568 48.7754 45.2553 47.6505 47.0364C46.8069 48.38 45.6925 48.7862 44.151 48.432C43.6094 48.307 43.0782 48.13 42.547 47.9633C41.2243 47.5571 39.9015 47.1509 38.5058 47.0468C37.9955 47.0051 37.9955 47.0364 38.1829 47.5051C38.8391 49.0778 39.4744 50.6505 40.2972 52.1503C40.7868 53.0461 41.0368 54.0251 40.9639 55.0667C40.8805 56.2332 40.3806 57.2226 39.6515 58.0871C38.5995 59.3266 37.5684 60.5764 36.7873 62.0033C36.7143 62.1387 36.5894 62.2533 36.6206 62.4512C36.6727 62.4512 36.7248 62.4512 36.7768 62.4408C38.1204 61.9825 39.4953 61.5867 40.7972 61.0243C41.2868 60.816 41.7554 60.5764 42.2866 60.4723C42.8178 60.3785 43.2553 60.5452 43.599 60.9514C43.7969 61.1909 43.9531 61.4513 44.0573 61.743C45.1196 64.5135 46.4319 67.1798 47.661 69.8774C47.6922 69.9503 47.7026 70.0649 47.8693 70.0649C47.9943 69.7107 48.1713 69.3566 48.2338 68.9817C48.7442 65.8987 49.3379 62.8262 49.7024 59.7224C49.9107 57.9726 50.6502 56.6498 52.3479 55.9624C53.8894 55.3375 55.41 54.6605 56.9099 53.9418C58.0139 53.4106 59.0867 52.8273 60.1491 52.2024ZM60.7115 46.1823C60.6386 46.7864 60.7323 47.2967 60.7323 47.8071C60.7323 50.3485 60.8052 52.8898 60.5969 55.4208C60.399 57.858 59.795 60.1911 58.6805 62.3783C57.2223 65.2529 55.0247 67.4506 52.3167 69.1587C50.6919 70.1794 48.9213 70.9189 47.1819 71.7209C47.0152 71.8043 46.7132 71.8042 46.7236 72.023C46.734 72.2104 47.0152 72.2625 47.1923 72.3458C48.5879 72.9916 50.0357 72.9812 51.4938 72.6479C54.431 71.9813 56.8682 70.4086 59.0554 68.388C60.9927 66.5965 62.5759 64.5343 63.5029 62.045C64.9089 58.2746 64.8673 54.4938 63.4924 50.7234C62.8571 49.0674 61.9614 47.5571 60.7115 46.1823Z" fill="#0017AF"/>
<path d="M50.4211 76.8555C52.702 76.8555 54.5247 78.6886 54.5247 80.9696C54.5247 83.2505 52.6603 85.1149 50.3794 85.1045C48.1088 85.0941 46.2653 83.2297 46.2757 80.9279C46.2861 78.6678 48.1297 76.8555 50.4211 76.8555Z" fill="#0017AF"/>
<path d="M38.0888 97.0199C37.7139 95.8846 37.3389 94.7494 36.9639 93.6141C36.8181 93.1766 36.8703 93.1141 37.2869 92.9996C37.4848 92.9475 37.5785 93.01 37.641 93.1975C38.1617 94.7806 38.6825 96.3533 39.2033 97.9365C39.245 98.0615 39.297 98.2177 39.1304 98.2802C38.8804 98.3739 38.6409 98.551 38.3492 98.3114C37.6722 97.749 36.9848 97.2074 36.2974 96.6658C35.7975 96.27 35.3079 95.8742 34.7976 95.468C34.6726 95.6347 34.7871 95.7492 34.8184 95.8638C35.1517 96.8845 35.4746 97.9156 35.8287 98.9364C35.9329 99.2488 35.8495 99.3842 35.5475 99.4884C35.2454 99.5925 35.1517 99.4467 35.0684 99.1967C34.5893 97.7178 34.0997 96.2388 33.6206 94.7598C33.5686 94.5931 33.3811 94.3744 33.6415 94.2286C33.8915 94.0932 34.1518 93.9682 34.4539 94.2182C35.5371 95.1035 36.6307 95.968 37.7139 96.8429C37.818 96.9262 37.9222 96.9991 38.0263 97.072C38.0576 97.0616 38.068 97.0408 38.0888 97.0199Z" fill="#0017AF"/>
<path d="M56.097 92.7494C56.0554 93.5514 55.7637 94.1242 55.0346 94.395C54.8055 94.4783 54.7638 94.5929 54.8367 94.8117C55.0346 95.3949 55.2221 95.9678 55.3991 96.5614C55.4408 96.7177 55.6387 96.9051 55.42 97.051C55.2533 97.1551 54.7534 96.9364 54.6805 96.7385C54.5659 96.426 54.4722 96.1032 54.3784 95.7907C54.3264 95.6345 54.2639 95.4887 54.243 95.3324C54.1597 94.6138 53.7118 94.3638 53.0557 94.3325C52.8369 94.3221 52.7328 94.3638 52.6911 94.5825C52.5974 95.0929 52.4828 95.6032 52.3995 96.1136C52.3474 96.4052 52.2225 96.4885 51.9308 96.426C51.66 96.374 51.5455 96.2802 51.608 95.9678C51.9204 94.3742 52.2224 92.7806 52.5245 91.1871C52.5661 90.9475 52.6703 90.8434 52.9307 90.8954C53.5139 91.0204 54.1076 91.1038 54.6909 91.2496C55.5658 91.4683 56.0866 92.0724 56.097 92.7494ZM54.0868 93.8743C54.795 93.8847 55.17 93.5826 55.2742 93.0098C55.3679 92.4994 55.1284 92.0828 54.5868 91.9162C54.2431 91.812 53.8889 91.7599 53.5348 91.687C53.3473 91.6454 53.2327 91.7391 53.1911 91.9266C53.0973 92.4057 53.014 92.8952 52.9203 93.3743C52.8786 93.5618 52.9411 93.6555 53.1182 93.6972C53.4723 93.7597 53.8368 93.8222 54.0868 93.8743Z" fill="#0017AF"/>
<path d="M44.2237 97.0197C43.255 97.0301 42.6301 96.6968 42.2343 96.0614C41.6094 95.0616 41.3594 93.9471 41.651 92.7806C41.8802 91.864 42.5885 91.4682 43.4634 91.3224C44.2966 91.187 44.9944 91.4162 45.4527 92.1661C45.536 92.3015 45.7339 92.4681 45.536 92.6556C45.3485 92.8327 44.9319 92.7806 44.8069 92.5619C44.4632 91.9473 43.9112 91.8744 43.2863 92.0202C42.6822 92.1661 42.3176 92.6556 42.3176 93.3743C42.3176 94.1138 42.4426 94.8324 42.7863 95.499C43.2654 96.4364 44.4632 96.6551 45.2756 95.999C45.4214 95.8844 45.4944 95.7386 45.4735 95.5511C45.4631 95.4886 45.4527 95.4157 45.4423 95.3532C45.2964 94.5408 45.2965 94.5408 44.4841 94.7074C44.2653 94.7491 44.0258 94.8637 43.9529 94.5095C43.9008 94.2908 43.932 94.1554 44.1924 94.1033C44.6611 94.0096 45.1298 93.9054 45.5985 93.8013C45.8172 93.7492 45.9422 93.8117 45.9839 94.0617C46.0568 94.4783 46.1193 94.9053 46.2443 95.3115C46.3901 95.7906 46.2026 96.1135 45.8589 96.3843C45.3381 96.8218 44.7132 97.0092 44.2237 97.0197Z" fill="#0017AF"/>
<path d="M49.4938 95.6239C49.8687 95.6239 50.2333 95.6343 50.6082 95.6239C50.8478 95.6135 50.9311 95.7385 50.9415 95.9676C50.952 96.2071 50.827 96.2905 50.5874 96.2801C49.6396 96.2592 48.6918 96.3113 47.744 96.3634C47.4524 96.3738 47.3482 96.2696 47.3482 95.9884C47.3274 94.8948 47.2544 93.8012 47.2544 92.7076C47.2544 92.2076 47.2128 91.7181 47.192 91.2182C47.1711 90.8953 47.2649 90.739 47.6086 90.7286C48.4627 90.7182 49.3063 90.6766 50.1604 90.6661C50.3999 90.6661 50.7332 90.5307 50.7332 90.989C50.7332 91.4369 50.3791 91.3015 50.15 91.3223C49.5667 91.364 48.9834 91.3744 48.4002 91.3848C48.1398 91.3848 47.994 91.4785 48.0148 91.7597C48.0356 92.1139 48.046 92.4784 48.0669 92.8325C48.0773 93.0408 48.1815 93.1138 48.4106 93.1033C48.9835 93.0721 49.5563 93.0721 50.1291 93.0617C50.3478 93.0513 50.4833 93.1138 50.4937 93.3637C50.5041 93.6241 50.3791 93.7179 50.1291 93.7179C49.5875 93.7283 49.0459 93.7699 48.4939 93.7803C48.2023 93.7803 48.0773 93.8845 48.0981 94.1865C48.1189 94.5719 48.1085 94.9573 48.1294 95.3427C48.1398 95.5718 48.2439 95.6864 48.5147 95.6551C48.8376 95.6135 49.1813 95.6447 49.5146 95.6447C49.4938 95.6551 49.4938 95.6343 49.4938 95.6239Z" fill="#0017AF"/>
<path d="M62.2739 97.9365C62.2739 98.3739 62.2843 98.6968 62.2635 99.0197C62.253 99.1655 62.3676 99.4363 62.0864 99.4155C61.8469 99.3946 61.5239 99.3738 61.5239 98.9884C61.5239 98.6655 61.5031 98.3531 61.5239 98.0302C61.5344 97.7698 61.4302 97.6448 61.1906 97.5719C60.6699 97.4053 60.1595 97.2074 59.6492 97.0199C59.4304 96.9366 59.2742 96.9782 59.1284 97.1657C58.9618 97.3844 58.7847 97.6032 58.5972 97.8115C58.3785 98.0719 58.0035 98.1031 57.7536 97.8844C57.5869 97.7386 57.7431 97.6448 57.816 97.5511C58.4826 96.7699 59.1492 95.9992 59.8158 95.218C60.2845 94.6764 60.7532 94.1348 61.2219 93.5828C61.3886 93.3849 61.5552 93.2704 61.8364 93.3849C62.0968 93.4891 62.1593 93.6661 62.1593 93.9161C62.1801 95.2909 62.201 96.6762 62.2739 97.9365ZM61.4614 94.5514C61.4198 94.541 61.3886 94.5306 61.3469 94.5098C61.0553 94.8535 60.7636 95.2076 60.472 95.5513C59.7741 96.3637 59.7742 96.3742 60.7845 96.7179C61.5136 96.9678 61.4614 97.072 61.4614 96.2283C61.4614 95.6763 61.4614 95.1139 61.4614 94.5514Z" fill="#0017AF"/>
<path d="M58.4928 92.4162C58.472 92.4891 58.4616 92.5516 58.4407 92.6141C57.9616 94.1451 57.4825 95.6866 57.0242 97.2177C56.92 97.551 56.7638 97.5822 56.4618 97.4885C56.1702 97.3947 56.191 97.2177 56.2639 96.999C56.6388 95.7908 57.0034 94.5826 57.3783 93.3848C57.4929 93.0203 57.6075 92.6453 57.7221 92.2808C57.7846 92.0829 57.92 92.0412 58.097 92.1141C58.2532 92.1766 58.4824 92.1558 58.4928 92.4162Z" fill="#0017AF"/>
<path d="M41.2346 97.5194C41.245 97.7902 40.9846 97.7485 40.818 97.811C40.6097 97.8943 40.5055 97.8006 40.443 97.5923C40.1618 96.5716 39.8598 95.5509 39.5785 94.5301C39.4119 93.9573 39.2557 93.374 39.0891 92.8116C39.0057 92.5304 39.1723 92.4783 39.3807 92.4158C39.589 92.3533 39.766 92.3117 39.8389 92.5929C40.2868 94.1864 40.7451 95.7904 41.2034 97.384C41.2138 97.4152 41.2138 97.4569 41.2346 97.5194Z" fill="#0017AF"/>
<path d="M31.298 51.2131C30.6002 50.7236 29.9752 50.2861 29.3503 49.8487C28.6837 49.38 28.0171 48.9217 27.3505 48.4634C27.0485 48.2551 27.0068 47.474 27.2776 47.2344C27.3714 47.1511 27.4756 47.1928 27.5797 47.2136C29.3712 47.6302 31.1522 48.0468 32.9436 48.4426C33.2665 48.5155 33.2457 48.7134 33.1936 48.953C33.1415 49.2134 33.0686 49.3904 32.7145 49.3175C31.5376 49.0467 30.3606 48.7759 29.1941 48.453C29.0274 48.4114 28.8608 48.3697 28.6629 48.4009C29.2566 48.8176 29.8399 49.2342 30.4335 49.6508C31.0793 50.0987 31.7146 50.5569 32.3604 51.0048C32.5478 51.1298 32.6728 51.2548 32.6103 51.5256C32.5478 51.786 32.4229 51.9005 32.1625 51.9422C30.7356 52.1609 29.2982 52.4005 27.8713 52.6296C27.8088 52.64 27.7568 52.6504 27.6943 52.7233C28.5483 52.9004 29.4024 53.0775 30.2565 53.265C30.7668 53.3691 31.2667 53.5045 31.7771 53.6087C32.1833 53.692 32.0479 53.9524 32.0063 54.1919C31.9646 54.4523 31.85 54.546 31.5688 54.4836C29.8086 54.0669 28.0484 53.6607 26.2881 53.265C25.9861 53.192 25.9132 53.0566 25.9861 52.7546C26.1424 52.0776 26.1215 52.088 26.8298 51.9839C28.2254 51.7755 29.6107 51.5568 31.0064 51.3381C31.0584 51.286 31.1314 51.2548 31.298 51.2131Z" fill="#0017AF"/>
<path d="M34.7456 74.8977C35.5997 74.4498 36.3704 74.054 37.1412 73.6478C37.6932 73.3562 38.2556 73.075 38.7972 72.7729C39.0055 72.6584 39.1722 72.6375 39.3701 72.8042C39.568 72.9708 39.5888 73.1375 39.5158 73.3666C39.0784 74.6894 38.6514 76.0226 38.2139 77.3453C38.1723 77.4703 38.141 77.5953 38.1619 77.7515C38.391 77.4703 38.6202 77.1787 38.8493 76.8975C39.5055 76.0955 40.1824 75.3039 40.8282 74.4915C41.0469 74.2103 41.1928 74.3457 41.3802 74.4915C41.5677 74.6477 41.7344 74.7623 41.5052 75.0331C40.5053 76.1892 39.5263 77.3661 38.5472 78.5327C38.3389 78.7722 38.1306 79.0118 37.9327 79.2618C37.8182 79.4076 37.7036 79.418 37.5682 79.293C37.4744 79.1993 37.3703 79.1159 37.2557 79.043C36.9849 78.866 36.9641 78.6577 37.0682 78.3556C37.5265 77.012 37.9639 75.658 38.4118 74.304C38.4535 74.1686 38.4951 74.0332 38.5576 73.8457C38.2868 73.8353 38.1098 73.9916 37.9223 74.0957C36.735 74.7206 35.5476 75.356 34.3602 75.9809C33.9644 76.1892 33.3916 75.9809 33.2041 75.5851C33.1208 75.4185 33.2562 75.3351 33.3395 75.2414C34.506 73.8561 35.6726 72.4813 36.8287 71.0857C37.037 70.8357 37.1828 70.9086 37.3807 71.0752C37.5786 71.2523 37.7244 71.3773 37.4745 71.6481C36.6621 72.5646 35.8705 73.4916 35.0685 74.4186C34.9539 74.5436 34.8289 74.6269 34.7456 74.8977Z" fill="#0017AF"/>
<path d="M57.8156 32.8397C57.2948 34.0479 56.7845 35.2561 56.2637 36.4643C56.0658 36.9226 56.0554 36.9122 55.5867 36.7351C55.2742 36.6101 55.3264 36.4435 55.4305 36.2039C56.1179 34.5999 56.8053 32.996 57.4927 31.4024C57.5657 31.2462 57.5761 30.9441 57.8573 31.0275C58.1281 31.1108 58.4614 31.142 58.5239 31.5482C58.6593 32.444 58.8363 33.3293 58.9926 34.225C59.128 35.0166 59.2738 35.8081 59.4925 36.6101C59.8987 35.6623 60.3049 34.7145 60.7111 33.7667C60.8465 33.4647 60.9924 33.1626 61.0965 32.8502C61.2007 32.5585 61.3464 32.4856 61.6381 32.621C61.9089 32.746 62.0443 32.8502 61.8984 33.1834C61.3568 34.4021 60.8465 35.6311 60.3258 36.8497C60.1591 37.2455 59.9924 37.6308 59.8154 38.0162C59.7425 38.1724 59.7321 38.4537 59.4821 38.3808C59.2113 38.2974 58.8676 38.2662 58.7947 37.8704C58.5968 36.6726 58.3781 35.4853 58.1698 34.2979C58.0864 33.8188 57.9927 33.3397 57.9094 32.8606C57.8781 32.8397 57.8469 32.8397 57.8156 32.8397Z" fill="#0017AF"/>
<path d="M49.6502 33.7148C49.6606 35.2771 48.7649 36.3082 47.3067 36.5478C46.9005 36.6103 46.4838 36.6415 46.0881 36.7353C45.6714 36.8394 45.5569 36.6728 45.5048 36.2978C45.3173 34.975 45.1194 33.6419 44.9215 32.3191C44.859 31.9025 44.807 31.4755 44.7341 31.0588C44.6924 30.8089 44.7549 30.6735 45.0049 30.6422C45.5673 30.5589 46.1298 30.4547 46.7026 30.4027C47.8691 30.3089 48.869 30.9443 49.3065 32.0379C49.5356 32.6212 49.6189 33.2252 49.6502 33.7148ZM48.7544 33.7773C48.7232 33.3502 48.6815 32.8191 48.494 32.3191C48.2128 31.5692 47.6087 31.1317 46.8588 31.1526C46.5567 31.163 46.2547 31.2359 45.9527 31.2671C45.7235 31.2984 45.6819 31.4025 45.7131 31.6213C45.9214 32.944 46.1089 34.2772 46.3068 35.6C46.3381 35.7874 46.4109 35.8812 46.6088 35.8916C47.8899 35.9645 48.7648 35.1417 48.7544 33.7773Z" fill="#0017AF"/>
<path d="M72.0434 52.1085C72.6891 52.0669 73.387 52.1814 73.9702 52.6293C75.3659 53.6813 75.2409 55.8268 73.689 56.6392C72.5329 57.2329 71.2934 57.3267 70.054 56.8788C69.0958 56.5351 68.6479 55.7643 68.5855 54.7853C68.5334 53.9 68.8771 53.1709 69.6374 52.6814C70.3457 52.2127 71.1477 52.0981 72.0434 52.1085ZM72.0121 52.9938C71.3039 52.9938 70.606 53.0459 69.9811 53.4521C69.4291 53.8167 69.3041 54.3374 69.377 54.9519C69.4395 55.504 69.752 55.8893 70.2519 56.0456C71.3559 56.3997 72.46 56.3164 73.5015 55.7852C74.0431 55.5144 74.2202 55.004 74.1785 54.3999C74.1473 53.8375 73.8765 53.4521 73.387 53.2022C72.9391 52.9834 72.4704 52.9938 72.0121 52.9938Z" fill="#0017AF"/>
<path d="M30.7253 64.6592C30.7253 65.1695 30.7461 65.607 30.6316 66.0444C30.2879 67.2943 28.9547 67.6796 27.9964 66.8047C27.2361 66.1069 26.9549 64.8466 27.3715 63.9821C27.4861 63.7426 27.6423 63.5239 27.861 63.3572C28.3401 62.9823 28.4755 63.0239 28.6318 63.6072C28.6838 63.7947 28.6422 63.8884 28.4756 64.003C27.7048 64.5342 27.7777 65.8153 28.6005 66.284C29.0692 66.5548 29.6212 66.3569 29.8087 65.8361C29.9337 65.4924 29.9025 65.1279 29.9025 64.7737C29.9129 64.2321 29.84 63.6801 30.0275 63.1489C30.4024 62.0657 31.6627 61.6804 32.548 62.399C33.3604 63.0552 33.7353 64.5446 33.3291 65.5028C33.1833 65.8361 32.975 66.1277 32.6417 66.3048C32.5063 66.3777 32.3189 66.5131 32.2459 66.284C32.173 66.0652 31.8918 65.8257 32.173 65.5653C32.9125 64.8987 32.9333 63.8467 32.2251 63.1697C31.7356 62.7011 30.9857 62.8989 30.7982 63.5447C30.6732 63.9301 30.7357 64.3363 30.7253 64.6592Z" fill="#0017AF"/>
<path d="M70.3248 48.9417C70.304 48.473 70.3248 48.0148 70.4498 47.5565C70.8039 46.317 72.1683 45.9629 73.0953 46.8482C74.0327 47.7544 74.1264 49.3896 73.2724 50.1916C73.2099 50.2437 73.1578 50.3166 73.0849 50.3478C72.9078 50.4207 72.7516 50.7019 72.5433 50.452C72.2933 50.1603 72.3454 49.7958 72.6266 49.6187C73.1057 49.3167 73.2411 48.848 73.0432 48.171C72.8661 47.5669 72.5225 47.2544 72.0329 47.2544C71.5851 47.2648 71.3247 47.5044 71.2205 47.9731C71.1059 48.4835 71.1476 49.0042 71.1476 49.525C71.1476 49.8895 71.0955 50.2437 70.9497 50.577C70.481 51.6393 69.1166 51.8893 68.3458 51.0352C67.6584 50.2749 67.3981 49.3583 67.648 48.3272C67.7626 47.8689 68.023 47.5044 68.4292 47.2648C68.5646 47.1815 68.7729 47.0357 68.8562 47.2857C68.9292 47.5044 69.1999 47.7544 68.9083 48.0043C68.1688 48.6397 68.0959 49.6291 68.7521 50.3374C68.9812 50.5874 69.2624 50.7228 69.6061 50.6394C69.9603 50.5561 70.179 50.327 70.2623 49.9729C70.3352 49.6291 70.304 49.2854 70.3248 48.9417Z" fill="#0017AF"/>
<path d="M54.2016 36.4853C53.1913 36.402 52.1914 36.3187 51.1811 36.2354C50.8999 36.2145 50.827 36.0687 50.8478 35.8083C51.004 34.0169 51.1603 32.2358 51.3061 30.4444C51.3269 30.1528 51.4415 30.0382 51.7332 30.0694C52.7747 30.1632 53.8266 30.2465 54.8682 30.3298C55.1806 30.3507 55.264 30.5277 55.2327 30.8193C55.1911 31.1318 54.9932 31.111 54.764 31.0797C54.0454 31.0068 53.3371 30.9652 52.6184 30.8923C52.2852 30.861 52.1185 30.9652 52.129 31.3193C52.129 31.663 52.0873 32.0067 52.056 32.3504C52.0352 32.6421 52.1602 32.7566 52.4518 32.7774C53.0663 32.8191 53.6704 32.8816 54.2745 32.9233C54.5557 32.9441 54.6286 33.0795 54.6182 33.3399C54.6078 33.6315 54.4412 33.694 54.2016 33.6732C53.6079 33.6211 53.0142 33.5794 52.4101 33.5169C52.0872 33.4857 51.931 33.6107 51.9102 33.9232C51.879 34.3294 51.8477 34.746 51.8164 35.1522C51.7956 35.4126 51.8998 35.548 52.1706 35.5688C52.858 35.6209 53.5454 35.6729 54.2328 35.7354C54.4828 35.7563 54.8265 35.6313 54.8161 36.1104C54.8057 36.5999 54.4828 36.4958 54.2016 36.4853Z" fill="#0017AF"/>
<path d="M64.1588 42.5681C64.1484 41.9328 64.2734 41.5266 64.5962 41.1933C64.7004 41.0787 64.8462 40.8496 65.0024 41.0683C65.1378 41.2558 65.4607 41.4224 65.242 41.7453C64.7108 42.5369 64.9191 43.5263 65.7523 44.0367C66.044 44.2138 66.346 44.2762 66.6585 44.0888C66.9813 43.9117 67.1272 43.6409 67.1167 43.2764C67.1063 42.8389 66.9606 42.4431 66.8356 42.0369C66.7106 41.6099 66.6064 41.1933 66.6273 40.7454C66.6585 39.8289 67.398 39.1935 68.3041 39.2664C69.5644 39.3706 70.8767 41.287 70.0748 42.589C70.0227 42.6827 69.9706 42.7764 69.8977 42.8493C69.7623 42.9743 69.6686 43.2243 69.4186 43.016C69.1374 42.7764 69.0748 42.4952 69.2623 42.2869C69.8456 41.5891 69.4186 40.308 68.5333 40.0997C67.95 39.9643 67.4605 40.3496 67.4709 40.9537C67.4709 41.3704 67.6271 41.7661 67.7417 42.1515C67.8875 42.6202 68.0229 43.0993 67.95 43.5992C67.7937 44.7658 66.6064 45.3907 65.5961 44.7866C64.7004 44.2554 64.2421 43.4222 64.1588 42.5681Z" fill="#0017AF"/>
<path d="M30.8714 42.0367C30.861 42.7033 31.4234 43.0783 32.0379 42.8387C32.4024 42.6929 32.6941 42.4429 32.9961 42.193C33.3502 41.8909 33.7252 41.6201 34.1731 41.443C35.3292 40.9952 36.4749 41.8909 36.3291 43.1199C36.2041 44.1719 35.2771 45.2343 34.298 45.453C33.9752 45.5259 33.6627 45.5155 33.3607 45.3905C33.2149 45.328 32.9649 45.2863 33.1003 45.0468C33.2149 44.8489 33.2565 44.526 33.6002 44.5781C34.5897 44.7343 35.1938 44.3698 35.5167 43.4324C35.6417 43.0574 35.6104 42.6929 35.2979 42.4117C35.0063 42.1409 34.6106 42.1096 34.2252 42.3179C33.8398 42.5263 33.5065 42.8283 33.1628 43.0991C32.8607 43.3387 32.5274 43.547 32.1629 43.6719C31.1109 44.0365 30.0798 43.2762 30.1007 42.1513C30.1215 41.1931 30.9339 40.1203 31.8504 39.8391C32.2358 39.7245 32.6108 39.7349 32.9857 39.8911C33.1211 39.9432 33.4024 39.9745 33.2461 40.2244C33.1107 40.4223 33.0898 40.8077 32.6732 40.6827C31.7567 40.4223 30.8818 41.0889 30.8714 42.0367Z" fill="#0017AF"/>
<path d="M41.7448 38.3289C40.9532 38.3081 40.3699 37.9748 40.0262 37.2978C39.4221 36.1 38.8493 34.8814 38.2556 33.6732C38.089 33.3399 38.3389 33.2879 38.5264 33.1837C38.7347 33.0691 38.9014 33.0066 39.0368 33.2983C39.568 34.444 40.12 35.5793 40.672 36.7145C41.0886 37.5686 41.7448 37.7769 42.5884 37.3395C43.3279 36.9541 43.5362 36.3188 43.1613 35.5168C42.6405 34.4231 42.1093 33.3399 41.5782 32.2463C41.3698 31.8089 41.4011 31.736 41.8698 31.5589C42.0677 31.486 42.1927 31.5172 42.2864 31.7151C42.8592 32.9337 43.4633 34.1315 44.0153 35.3605C44.4007 36.2354 44.1299 37.1103 43.3592 37.6936C42.8696 38.0894 42.328 38.3185 41.7448 38.3289Z" fill="#0017AF"/>
<path d="M33.6833 67.0439C34.6311 67.0439 35.506 67.7834 35.8393 68.8771C36.1205 69.7936 35.8289 70.5956 34.9748 71.1476C33.902 71.8455 32.8189 72.5016 31.7461 73.1995C31.444 73.3974 31.3398 73.2515 31.1836 73.0224C31.017 72.7724 31.0274 72.6162 31.3086 72.4496C32.3397 71.8142 33.3604 71.158 34.3811 70.5227C35.3394 69.9186 35.4331 68.9812 34.6103 68.2105C34.1625 67.7939 33.6521 67.7418 33.0792 68.1063C32.0064 68.7729 30.9336 69.4395 29.8817 70.1269C29.5796 70.3248 29.4338 70.2727 29.2568 69.9811C29.1005 69.7207 29.1214 69.5645 29.3818 69.4083C30.465 68.7417 31.5481 68.0542 32.6209 67.3772C32.9542 67.1585 33.298 67.0439 33.6833 67.0439Z" fill="#0017AF"/>
<path d="M65.8044 69.0336C65.4502 69.0441 65.2315 68.742 65.3669 68.492C65.8773 67.5338 66.4085 66.5756 66.9188 65.6174C67.0334 65.3987 67.1584 65.3778 67.3667 65.4924C68.9915 66.3777 70.6163 67.2526 72.2412 68.1379C72.4182 68.2316 72.4494 68.3462 72.3557 68.5233C71.8245 69.5023 71.2829 70.4814 70.7621 71.4708C70.6371 71.7104 70.4913 71.6062 70.3351 71.5229C70.1476 71.4292 70.0227 71.325 70.1581 71.0959C70.5226 70.4293 70.8767 69.7523 71.2517 69.0961C71.4183 68.8045 71.4287 68.6274 71.085 68.4816C70.7309 68.3254 70.3976 68.1275 70.0643 67.9296C69.856 67.8046 69.7414 67.8359 69.6269 68.0546C69.3352 68.617 69.0124 69.169 68.7207 69.7419C68.5957 69.9918 68.4603 70.0752 68.1895 69.9294C67.9187 69.794 67.95 69.6377 68.075 69.419C68.377 68.8774 68.6687 68.315 68.9811 67.7734C69.1373 67.513 69.0748 67.3672 68.8144 67.2422C68.4082 67.0443 68.0125 66.8256 67.6167 66.5964C67.3667 66.4506 67.2521 66.5235 67.1271 66.7631C66.7834 67.4401 66.4085 68.0962 66.044 68.7628C65.971 68.8774 65.9189 69.0128 65.8044 69.0336Z" fill="#0017AF"/>
<path d="M74.6575 60.9717C74.6471 62.2841 73.8972 63.1381 72.6473 63.2735C72.4911 63.2944 72.2412 63.3673 72.2412 63.1069C72.2308 62.8673 72.1787 62.5549 72.5016 62.4195C72.5745 62.3882 72.6578 62.3882 72.7411 62.3778C73.3765 62.3049 73.7618 61.9612 73.8972 61.3363C74.043 60.6801 73.8347 60.076 73.2515 59.7531C72.2932 59.2219 71.2517 59.024 70.1685 59.274C69.4811 59.4302 69.1686 59.8885 69.1061 60.6801C69.0541 61.2529 69.2832 61.6071 69.9081 61.9299C70.1997 62.0757 70.2935 62.5549 70.0852 62.8048C69.9915 62.909 69.8873 62.8673 69.7935 62.8257C69.0853 62.5549 68.5957 62.0862 68.4187 61.3363C68.0333 59.7427 69.0437 58.3783 70.7414 58.2845C71.6579 58.2325 72.5745 58.3887 73.4077 58.8261C74.2514 59.2844 74.6575 60.0031 74.6575 60.9717Z" fill="#0017AF"/>
<path d="M61.7217 76.9391C61.8155 77.7202 61.8988 78.5118 62.003 79.3034C62.0759 79.8658 62.0133 79.9804 61.5134 80.2616C61.2947 80.3866 61.2322 80.3137 61.2114 80.0949C61.1072 78.9701 60.9823 77.8452 60.9093 76.7203C60.8781 76.2517 60.7427 75.8454 60.4615 75.4705C60.2115 75.1268 59.9928 74.7622 59.7428 74.4185C59.5345 74.1269 59.7428 74.0227 59.9303 73.8978C60.1178 73.7728 60.3052 73.627 60.4406 73.929C61.0551 75.2309 62.1279 75.9913 63.409 76.5329C63.9923 76.7828 64.5443 77.1161 65.1172 77.3869C65.3671 77.5119 65.4192 77.5848 65.1588 77.7827C64.8151 78.0431 64.5339 78.116 64.1277 77.8556C63.4715 77.439 62.7529 77.0953 62.0654 76.7203C61.8259 76.5745 61.6696 76.5745 61.7217 76.9391Z" fill="#0017AF"/>
<path d="M36.7348 35.0581C36.7348 35.1727 36.6515 35.2248 36.589 35.2873C36.2973 35.5581 36.0161 35.8393 35.7037 36.0997C35.4433 36.308 35.412 36.4746 35.662 36.7454C36.7035 37.8495 37.7243 38.9639 38.7554 40.0784C39.047 40.3908 38.9428 40.7762 38.5262 40.9012C38.3596 40.9533 38.2867 40.8283 38.193 40.7345C37.4014 39.8909 36.6202 39.0368 35.8391 38.1932C35.537 37.8703 35.235 37.5578 34.9434 37.2245C34.7767 37.0266 34.6517 37.0683 34.4851 37.2245C34.1726 37.5266 33.8289 37.8078 33.5164 38.1203C33.3289 38.3077 33.2039 38.2453 33.0581 38.0786C32.9227 37.9224 32.829 37.7974 33.0269 37.6099C34.058 36.6621 35.0788 35.7143 36.1099 34.7769C36.2036 34.6936 36.2974 34.6103 36.4224 34.704C36.5578 34.8082 36.6723 34.9123 36.7348 35.0581Z" fill="#0017AF"/>
<path d="M63.9713 34.1313C64.1275 34.1522 64.2004 34.2251 64.2733 34.298C65.2628 35.2041 66.2523 36.1103 67.2521 37.006C67.4292 37.1622 67.5438 37.2872 67.3251 37.5268C67.1063 37.7559 66.971 37.7143 66.7731 37.5164C66.4814 37.2247 66.1585 36.9643 65.8669 36.6831C65.7002 36.5269 65.5961 36.4852 65.419 36.6831C64.3879 37.8392 63.3359 38.9953 62.2944 40.141C61.9819 40.4848 61.659 40.4327 61.4403 40.0161C61.357 39.8494 61.482 39.7661 61.5654 39.6724C62.6069 38.5162 63.638 37.3601 64.7003 36.2249C64.9607 35.9436 64.9399 35.7874 64.6691 35.5687C64.3567 35.3187 64.0754 35.0375 63.7838 34.7667C63.7005 34.6938 63.5651 34.6209 63.6588 34.4751C63.7421 34.3397 63.8359 34.2043 63.9713 34.1313Z" fill="#0017AF"/>
<path d="M69.6268 73.0536C69.6268 73.1682 69.5539 73.2307 69.4914 73.3036C68.5853 74.3139 67.6792 75.3138 66.773 76.3345C66.5856 76.5532 66.4397 76.574 66.221 76.3657C65.9814 76.147 66.1064 76.0116 66.2626 75.845C66.523 75.5637 66.773 75.2617 67.0438 74.9909C67.2521 74.7826 67.2626 74.6472 67.0334 74.4389C66.0648 73.5848 65.117 72.7203 64.1587 71.8559C63.9817 71.6996 63.8046 71.533 63.6275 71.3768C63.2734 71.0435 63.2943 70.856 63.69 70.5435C63.8671 70.4081 63.9608 70.5435 64.065 70.6372C64.7836 71.2726 65.4919 71.9184 66.2001 72.5537C66.6792 72.9807 67.1584 73.3973 67.6167 73.8348C67.825 74.0431 67.9395 74.0014 68.1166 73.7931C68.3874 73.4598 68.679 73.1578 68.9707 72.8453C69.0436 72.762 69.1269 72.637 69.2727 72.7099C69.4185 72.7828 69.5539 72.8974 69.6268 73.0536Z" fill="#0017AF"/>
<path d="M32.4124 60.6805C32.4437 60.8888 32.3292 60.9617 32.1417 60.9929C30.3398 61.2325 28.5275 61.4616 26.7256 61.7116C26.3819 61.7637 26.2882 61.5866 26.2465 61.295C26.2048 61.0033 26.2882 60.8575 26.6111 60.8159C28.0588 60.6388 29.5066 60.4409 30.9647 60.2534C31.0585 60.243 31.1522 60.2118 31.2355 60.2118C31.5063 60.2014 31.5897 60.0868 31.548 59.7952C31.4334 59.0973 31.3709 58.3995 31.2563 57.7017C31.2042 57.3788 31.3293 57.2746 31.6209 57.233C31.923 57.2017 31.975 57.358 32.0063 57.6079C32.1417 58.6286 32.277 59.6598 32.4124 60.6805Z" fill="#0017AF"/>
<path d="M28.0587 55.6287C29.3815 55.6287 30.7042 55.6391 32.027 55.6183C32.0478 55.6183 32.0583 55.6287 32.0583 55.6496C32.2145 56.8161 31.9645 56.7744 28.9336 55.7537C28.8087 55.7121 28.6733 55.712 28.5483 55.7641C25.9548 56.7744 25.8715 56.514 25.8611 55.9829C25.8611 55.6912 25.934 55.535 26.2673 55.5454C26.861 55.5662 27.465 55.5558 28.0587 55.5558C28.0587 55.5767 28.0587 55.5975 28.0587 55.6287Z" fill="#0017AF"/>
<path d="M67.8458 63.4194C67.9604 63.4507 68.0645 63.4819 68.1687 63.5236C69.8039 64.086 71.4287 64.638 73.064 65.2005C73.5743 65.3775 73.5951 65.44 73.3868 65.94C73.2723 66.2316 73.0952 66.1379 72.9077 66.0754C71.4079 65.565 69.9185 65.0547 68.4187 64.5443C68.2416 64.4818 68.0645 64.4297 67.8875 64.3672C67.5021 64.2318 67.4084 63.7527 67.7208 63.4819C67.7521 63.4507 67.8042 63.4403 67.8458 63.4194Z" fill="#0017AF"/>
<path d="M19.2892 120.067L22.1889 120.067L22.0889 130.566C22.0889 132.891 22.0639 134.966 19.5391 136.641C17.5143 137.99 14.5897 137.69 14.1647 137.69C11.765 137.641 8.69029 136.291 8.09035 132.691C7.91537 131.566 7.86537 130.966 7.86537 129.366L7.71539 120.067L10.7401 120.067L10.7901 127.442C10.7901 127.442 10.7901 127.642 10.7901 127.817C10.7901 127.892 10.7901 127.967 10.7901 128.017L10.7901 128.566C10.8401 130.191 10.8901 132.016 11.19 132.816C11.715 134.291 12.7399 135.066 14.9646 135.091C18.0393 135.141 19.1642 133.991 19.2142 130.541L19.2892 120.067ZM38.602 120.017L38.602 127.642L38.602 129.066L38.602 135.991L38.602 136.891L38.602 137.416L36.9271 137.416L36.4522 137.416L27.5031 125.317L27.6031 137.416L24.8034 137.416L24.8034 120.017L26.4782 120.017L26.9782 120.017L35.8272 131.816L35.8772 120.017L38.602 120.017ZM44.557 137.416L41.7823 137.416L41.7823 120.017L44.557 120.017L44.557 137.416ZM50.5999 134.691L59.149 134.716L59.149 137.391L47.7502 137.391L47.7502 119.992L50.5499 119.967L50.5999 134.691ZM71.0114 120.017L77.8107 137.416C77.0108 137.416 76.8108 137.441 74.711 137.416L73.0862 133.291L66.3119 133.266L64.6871 137.391C62.7373 137.416 62.5373 137.416 61.7624 137.416L68.5867 120.017L71.0114 120.017ZM67.1368 130.841L72.3113 130.841L69.7115 123.942L67.1368 130.841ZM95.7717 128.117L95.7717 128.416L95.7967 137.441L93.4969 137.441L93.2969 135.116C93.2969 135.116 92.072 137.616 88.0725 137.616C82.998 137.616 79.9733 134.391 79.9733 128.316C79.9733 122.917 83.373 119.717 87.9225 119.667C94.1468 119.617 95.1217 124.217 95.1217 124.217L92.397 124.667C92.397 124.667 91.9971 122.017 88.0975 122.067C84.6228 122.117 82.773 124.567 82.823 128.441C82.923 132.941 84.8978 135.191 88.3724 135.141C92.872 135.116 93.2469 132.191 93.2469 132.191L93.2219 130.391L88.9974 130.391L88.9724 128.117L95.7717 128.117Z" fill="#0017AF"/>
</svg>
