<svg width="100" height="134" viewBox="0 0 100 134" fill="none" xmlns="http://www.w3.org/2000/svg">
<path d="M51.4939 2.83725e-09C51.5251 2.83897e-09 51.546 2.84012e-09 51.5772 2.84184e-09C52.4938 1.07644 53.5874 1.98948 54.7539 2.83525C56.6808 4.21925 58.8056 5.32451 60.9824 6.33367C64.2216 7.833 67.492 9.26504 70.5958 10.995C71.377 11.4275 72.106 11.9177 72.8351 12.4079C72.9184 12.4655 73.0017 12.5232 73.0955 12.5712C73.6683 12.9268 74.0225 12.8788 74.4807 12.3886C74.7828 12.0619 75.1057 11.7543 75.4806 11.4948C76.6576 10.6683 77.772 10.7163 78.8657 11.6582C79.6572 12.331 80.2613 13.1383 80.8863 13.936C84.3129 18.2994 87.073 23.0088 89.5831 27.8624C90.1976 29.0542 90.8851 30.2267 91.4892 31.4281C91.7704 31.9856 92.1661 32.0624 92.7077 31.678C93.1973 31.3224 93.6451 30.9091 94.1347 30.5535C95.072 29.8711 95.145 29.8807 95.6657 30.8226C97.426 34.0135 98.5821 37.3773 99.0403 40.943C99.5715 45.095 99.0611 49.1413 97.8425 53.1395C97.6655 53.7065 97.4884 54.2736 97.4051 54.8598C97.301 55.5711 97.5821 56.0804 98.2904 56.388C98.457 56.4649 98.6341 56.5129 98.8112 56.5706C99.4673 56.7724 99.9465 57.3203 99.9881 57.9546C100.071 59.2809 99.7069 60.5207 99.1965 61.7317C96.9989 66.9025 94.0514 71.6695 90.3331 76.0426C90.0831 76.3309 89.729 76.4751 89.4269 76.6961C88.0521 77.7149 87.1876 79.0412 86.6043 80.5502C86.1356 81.7515 85.8648 83.0106 85.5211 84.2504C84.9691 86.2976 84.0213 88.1525 82.3548 89.6518C81.0008 90.8628 79.376 91.6509 77.5533 92.0161C75.1473 92.4967 73.1684 93.6116 71.5332 95.2743C70.2416 96.5814 68.7627 97.6482 66.9816 98.3114C64.8673 99.1091 62.6592 99.234 60.4303 98.9457C58.0035 98.6285 55.6392 98.023 53.2645 97.4656C49.8899 96.6679 46.5674 96.812 43.2762 97.7731C40.8598 98.4844 38.3913 99.013 35.8812 99.3109C33.5169 99.5896 31.1109 99.0034 29.2361 97.6482C27.8821 96.6679 26.6322 95.5914 25.3199 94.5631C23.9034 93.4482 22.2474 92.6024 20.4351 92.218C19.1852 91.9489 18.0291 91.4971 17.0084 90.7667C15.7065 89.8344 14.9566 88.585 14.6962 87.1049C14.0713 83.5968 12.6235 80.3964 10.5717 77.3977C9.37391 75.6485 7.94698 74.0627 6.58256 72.4288C4.02036 69.3629 2.34349 65.8933 1.18737 62.1835C0.729095 60.7226 0.374963 59.2329 0.0729156 57.7335C0.0520848 57.647 0.0208309 57.5702 -3.84204e-09 57.4837C-3.82084e-09 57.1665 -3.79964e-09 56.8493 -3.7778e-09 56.5225C0.291632 55.5807 1.05196 55.225 2.0206 55.1193C2.06226 55.1193 2.10397 55.1097 2.13521 55.1097C3.14551 54.9752 3.44752 54.5811 3.20797 53.6585C3.07257 53.1491 2.9059 52.6397 2.72884 52.1399C1.51023 48.7184 0.791603 45.2392 1.07282 41.6062C1.24988 39.338 1.61441 37.1178 2.4893 34.9842C2.96841 33.802 3.56208 32.6583 4.36407 31.6203C5.08273 30.6977 5.81183 30.5439 6.92629 31.0437C7.28041 31.2071 7.64496 31.3704 7.97825 31.5627C8.29072 31.7453 8.45733 31.7261 8.59273 31.3897C8.86353 30.7553 9.18645 30.1306 9.47808 29.4963C10.8842 26.4592 12.2486 23.4029 14.0296 20.5292C15.4565 18.2321 17.0293 16.0312 18.9874 14.0898C20.4872 12.6001 22.1536 11.293 24.0493 10.2262C25.1012 9.63027 25.5282 9.70715 26.2469 10.6394C26.6427 11.1488 26.9864 11.687 27.3822 12.1964C27.7051 12.6097 28.3091 12.6674 28.7153 12.3214C29.2569 11.86 29.7778 11.3891 30.3089 10.9278C32.6837 8.89021 35.4021 7.35245 38.4225 6.2664C39.9744 5.70896 41.6097 5.4014 43.1928 4.91124C46.4112 3.93091 49.2442 2.38354 51.4939 2.83725e-09ZM95.4054 44.3454C95.4366 43.4996 95.3741 42.4424 95.2179 41.3948C94.9992 39.8954 94.7075 38.4153 94.1555 36.9833C93.8639 36.2144 93.4264 36.0606 92.5932 36.349C92.0099 36.5604 91.4475 36.8199 90.9163 37.1178C90.6247 37.2812 90.4892 37.2236 90.3538 36.9448C89.6352 35.4936 88.9061 34.0423 88.1458 32.6103C85.7606 28.1507 83.1568 23.7969 80.73 19.3566C80.1259 18.2514 79.4385 17.1845 78.4594 16.3003C78.1366 16.012 77.7929 15.6564 77.2929 15.7813C76.793 15.9063 76.7096 16.3868 76.6159 16.7905C76.4388 17.5498 76.3138 18.309 76.1576 19.0683C76.1368 19.174 76.1577 19.3182 76.0118 19.347C75.8973 19.3663 75.8347 19.2509 75.7618 19.1836C74.939 18.4051 74.085 17.6843 73.1788 16.9827C69.398 14.0513 65.1485 11.8312 60.6907 9.9186C59.1805 9.27466 57.639 8.7076 56.1704 7.96755C54.6602 7.20828 53.2437 6.32406 52.0147 5.18996C51.4522 4.67096 51.1189 4.6133 50.5357 4.90163C47.2965 6.47784 43.9844 7.90989 40.6306 9.26505C37.1623 10.6683 33.9231 12.4271 31.0276 14.6761C29.2257 16.0793 27.5176 17.5786 25.6949 18.953C25.6116 19.0203 25.5282 19.1644 25.4032 19.1068C25.2887 19.0491 25.3408 18.9049 25.3408 18.7992C25.3408 18.0303 25.3512 17.2518 25.3303 16.4829C25.3199 15.9639 25.2575 15.4546 24.9762 14.9836C24.695 14.5127 24.2576 14.3781 23.7264 14.5896C23.3827 14.7241 23.0806 14.9356 22.8098 15.1758C22.1953 15.7237 21.6537 16.3292 21.1225 16.9443C17.5813 20.9521 14.9253 25.4597 12.6027 30.1306C11.4987 32.3508 10.5196 34.619 9.57178 36.9064C9.4468 37.214 9.3218 37.1755 9.10308 36.9833C8.75937 36.6757 8.40527 36.3682 8.03032 36.1087C6.95753 35.359 6.39512 35.5128 5.90559 36.6757C5.5723 37.4831 5.34311 38.3096 5.1348 39.1554C4.36406 42.2309 4.19741 45.3257 4.9369 48.43C5.57224 51.0923 6.67629 53.6392 7.4887 56.2534C7.64493 56.7532 7.59288 56.9454 7.06169 57.1377C6.61383 57.301 6.15552 57.4356 5.72849 57.6182C4.60362 58.0988 4.40572 58.4448 4.55154 59.5885C4.56195 59.6654 4.58282 59.7326 4.59324 59.8095C5.14526 62.2123 5.99929 64.5189 7.16582 66.7295C8.78021 69.7954 10.905 72.5249 13.4359 74.995C15.2795 76.7922 16.3627 78.9163 16.6855 81.3767C16.8209 82.4051 17.0188 83.4142 17.3417 84.4042C17.9354 86.2303 19.154 87.5374 21.0808 88.287C21.9349 88.6138 22.789 88.931 23.6951 89.0655C25.1116 89.2866 26.174 89.8729 26.9968 91.007C27.9863 92.3621 29.4861 93.2271 31.0276 94.0152C31.9962 94.515 32.9545 94.5727 33.9648 94.1402C35.7354 93.3809 37.5581 92.7177 39.4329 92.1891C43.3595 91.0935 47.359 90.6225 51.4522 90.9205C54.9414 91.18 58.2952 91.9585 61.5344 93.1791C62.5967 93.5827 63.607 94.0729 64.7006 94.3997C67.2003 95.1301 69.3355 94.4093 70.7312 92.3621C71.0958 91.8335 71.3561 91.2472 71.679 90.6994C72.2102 89.796 72.9809 89.1905 74.137 89.0751C74.4182 89.0463 74.6891 89.0271 74.9703 88.9887C77.5637 88.6427 79.6468 87.5566 80.9904 85.423C81.6986 84.2985 82.1048 83.0682 82.3652 81.79C82.8235 79.541 83.7088 77.465 85.292 75.687C85.9794 74.9085 86.7709 74.2069 87.4792 73.438C89.229 71.5158 90.7184 69.4206 92.1974 67.3157C93.4577 65.5281 94.52 63.6443 95.1658 61.5876C95.4053 60.8091 95.6657 60.0306 95.6345 59.204C95.6032 58.5601 95.2699 58.2429 94.5825 58.1853C94.395 58.166 94.2076 58.1468 94.0305 58.118C93.0515 57.9834 92.7077 57.5413 92.9681 56.6571C93.1764 55.9267 93.4577 55.2058 93.6972 54.4754C94.7179 51.2461 95.447 47.9591 95.4054 44.3454Z" fill="#0017AF"/>
<path d="M17.123 51.1591C17.1334 49.6021 17.7167 48.3815 18.779 47.3531C19.3831 46.7668 20.0497 46.2286 20.6642 45.652C21.6641 44.7293 22.6431 43.797 23.6222 42.8648C23.6638 42.8263 23.6951 42.7879 23.7264 42.7494C23.9763 42.413 24.1534 42.0478 23.893 41.6538C23.6222 41.2405 23.1744 41.2886 22.7473 41.3462C22.4349 41.3943 22.1432 41.5192 21.8516 41.6538C21.0496 42.019 20.258 42.3842 19.456 42.7494C19.3623 42.7879 19.2581 42.8744 19.1644 42.8167C19.0603 42.7494 19.1332 42.6341 19.154 42.5476C19.8102 40.4043 20.6642 38.338 21.9349 36.4158C22.5286 35.5316 23.3201 34.9165 24.3408 34.5128C26.1219 33.8016 27.9029 33.0711 29.6735 32.3407C30.2776 32.0908 30.8297 31.764 31.0276 31.1201C31.1734 30.6396 30.9755 30.2936 30.4547 30.1494C30.0277 30.0341 29.5902 30.0148 29.1528 29.986C28.8611 29.9668 28.5695 29.9283 28.33 29.7457C28.1321 29.6016 28.0592 29.467 28.2883 29.2748C29.6632 28.083 31.0276 26.8817 32.4337 25.7091C34.8188 23.7196 37.6101 22.3164 40.3598 20.8363C43.5469 19.1256 46.7444 17.434 49.9316 15.7329C50.0253 15.6848 50.1191 15.6368 50.2128 15.5887C50.9002 15.2523 51.1294 15.31 51.5772 15.8963C52.4 16.9727 53.5458 17.6839 54.7852 18.2702C57.8265 19.7022 60.6803 21.413 63.3883 23.3352C66.1068 25.267 68.7106 27.343 71.3665 29.3517C71.8873 29.7457 72.4185 30.1398 72.9497 30.5338C73.033 30.5915 73.158 30.6396 73.1163 30.7549C73.0851 30.8414 72.9705 30.851 72.8768 30.8798C72.3144 31.0048 71.7415 31.0048 71.1686 31.0048C70.7624 31.0048 70.3458 30.9856 70.1792 31.4469C70.0229 31.8698 70.1688 32.2446 70.6167 32.5714C70.8979 32.7636 71.2103 32.9078 71.5228 33.0423C71.9186 33.2153 72.2935 33.4268 72.6372 33.6863C72.8976 33.8881 73.1788 34.0611 73.5017 34.138C76.3659 34.8204 78.2616 36.5696 79.7197 38.8378C80.4801 40.0103 81.1258 41.2309 81.8445 42.4227C81.8965 42.5092 81.9486 42.5957 81.9694 42.6918C82.0007 42.8648 82.0319 43.057 81.8965 43.1819C81.7403 43.3261 81.5736 43.1723 81.4278 43.105C80.4071 42.6918 79.3864 42.2593 78.3449 41.8941C78.1678 41.8364 78.0012 41.7787 77.8033 41.7691C77.2929 41.7499 76.9701 42.067 77.0534 42.538C77.095 42.7687 77.1887 42.9897 77.3241 43.1819C78.5115 44.96 79.7301 46.7188 81.1362 48.3526C82.3756 49.7943 83.1047 51.4378 83.136 53.3023C83.1464 53.7925 83.1047 54.2826 82.9901 54.7632C82.7506 55.83 82.8339 56.9161 82.8964 57.9925C82.9381 58.7614 82.9797 59.5399 82.8756 60.3087C82.8652 60.3856 82.886 60.501 82.7922 60.5394C82.6672 60.5875 82.6048 60.4721 82.5318 60.4049C81.9694 59.8859 81.407 59.3573 80.8446 58.8383C80.5946 58.6076 80.3238 58.4154 80.0009 58.2904C79.3551 58.0405 78.7302 58.3865 78.7094 59.0401C78.6677 60.1934 78.9177 61.2891 79.4281 62.3367C80.2821 64.0955 80.2925 65.8159 79.1052 67.4593C78.7198 67.9879 78.2823 68.4781 77.8449 68.9779C74.9494 72.3129 71.8873 75.5134 68.6586 78.5889C67.5753 79.6172 66.4609 80.6264 65.3777 81.6548C64.4299 82.5582 63.3258 82.8562 62.0031 82.6447C59.3367 82.2218 56.6704 81.8855 53.9728 81.6548C51.7022 81.4626 49.4317 81.3665 47.1611 81.4241C44.0365 81.5106 40.9743 81.972 37.9226 82.5582C37.506 82.6351 37.0893 82.7312 36.6623 82.7408C35.7249 82.7793 34.9854 82.4429 34.3813 81.799C30.9442 78.166 27.5072 74.533 24.0701 70.8905C23.2264 69.9966 22.3515 69.122 21.737 68.0552C20.6538 66.1618 20.7371 64.2877 21.9349 62.4904C22.539 61.5774 22.7577 60.5779 22.9452 59.5687C23.0598 58.9248 22.7786 58.5019 22.2161 58.2808C21.7058 58.0886 21.1954 58.252 20.7579 58.7614C20.133 59.4822 19.6331 60.2799 19.0706 61.0392C18.9977 61.1353 18.9561 61.2987 18.8103 61.2891C18.6332 61.2794 18.6228 61.0968 18.5707 60.9815C18.2374 60.2415 18.2791 59.4437 18.1645 58.6653C17.852 56.522 17.5396 54.3884 17.2376 52.2451C17.1959 51.8414 17.1125 51.4474 17.123 51.1591ZM77.6887 52.2355C77.7408 49.8231 77.22 46.7572 76.4597 44.3833C73.9392 36.5599 68.7627 30.7741 60.7845 27.2084C56.7329 25.4016 52.4209 24.7961 47.9631 25.219C44.3073 25.5649 40.9014 26.651 37.7351 28.3521C33.0169 30.8991 29.2466 34.311 26.601 38.7513C24.4659 42.3362 23.341 46.1806 23.091 50.246C22.9556 52.4662 23.0598 54.6863 23.3931 56.8968C23.8097 59.6744 24.5804 62.3559 25.8615 64.9028C27.8196 68.7568 30.5693 72.0534 34.121 74.7541C38.4746 78.0699 43.4532 79.944 49.1192 80.2035C52.0876 80.3381 54.983 79.9537 57.8056 79.0983C62.3884 77.7143 66.2942 75.35 69.6272 72.1399C71.4707 70.3619 72.9913 68.3724 74.2099 66.1811C76.5742 61.933 77.6991 57.4062 77.6887 52.2355Z" fill="#0017AF"/>
<path d="M25.1846 25.9011C25.1533 24.0174 26.0178 22.6046 27.4031 21.4224C29.4445 19.6732 31.5589 18.0105 33.819 16.5016C37.4332 14.0796 41.3077 12.0901 45.5051 10.6581C46.4633 10.3313 47.2965 9.80268 48.1714 9.32212C48.6505 9.05302 49.1401 8.81274 49.6608 8.62052C50.6607 8.26491 51.6086 8.35141 52.5147 8.89924C52.9834 9.18757 53.4208 9.50474 53.8374 9.85073C54.754 10.6196 55.7747 11.2155 56.8996 11.6864C61.8365 13.7528 66.3359 16.4727 70.4917 19.6732C71.5228 20.4709 72.5331 21.2782 73.5018 22.1432C75.0016 23.4888 75.6473 25.1515 75.7619 27.0352C75.7827 27.4389 75.814 27.8426 75.8348 28.2462C75.8348 28.3327 75.8661 28.4288 75.7619 28.4769C75.6577 28.525 75.5953 28.4385 75.5224 28.3808C74.4808 27.5446 73.4288 26.7085 72.3873 25.8723C70.0855 24.0174 67.8983 22.0279 65.4611 20.3267C62.5031 18.2604 59.368 16.4535 55.9934 15.0311C54.6082 14.4544 53.4 13.6375 52.2439 12.734C52.1397 12.6572 52.046 12.5707 51.9418 12.4938C50.9836 11.8018 50.2754 11.7441 49.2234 12.3112C47.9319 13.0031 46.6299 13.6663 45.2968 14.291C43.2866 15.2425 41.266 16.1844 39.2454 17.1167C36.6103 18.3373 34.2564 19.9327 32.0484 21.7204C29.8299 23.508 27.851 25.5167 25.82 27.487C25.7366 27.5735 25.6845 27.7369 25.5179 27.6792C25.3929 27.6407 25.4137 27.487 25.3825 27.3909C25.2471 26.8719 25.1742 26.3529 25.1846 25.9011Z" fill="#0017AF"/>
<path d="M24.82 86.0376C22.9244 86.028 21.8099 85.1534 20.935 83.9232C19.8518 82.4047 19.3623 80.7035 19.1435 78.9351C18.9248 77.1666 18.2687 75.6193 16.9563 74.2929C15.5502 72.8609 14.3212 71.3039 13.1859 69.6796C11.8424 67.7574 10.6967 65.7391 9.73844 63.6247C9.68636 63.5093 9.54054 63.3748 9.66552 63.2594C9.75926 63.1729 9.91548 63.2787 10.0405 63.3075C13.3526 64.259 15.9981 66.0659 18.1958 68.5455C22.4244 73.3126 26.5906 78.1277 30.8401 82.8852C31.6629 83.8079 31.5067 84.2212 30.2881 84.5768C28.9965 84.9516 27.7154 85.3745 26.4239 85.7685C25.8407 85.9415 25.2366 86.0088 24.82 86.0376Z" fill="#0017AF"/>
<path d="M73.2519 86.1332C72.2312 86.1332 71.2417 85.9025 70.2835 85.6238C69.3149 85.3451 68.367 85.0279 67.3984 84.7492C67.0651 84.6531 67.0651 84.557 67.3046 84.3359C71.2104 80.7414 74.7309 76.8393 78.1576 72.8507C80.2823 70.3807 82.3862 67.8914 84.6568 65.5271C86.1566 63.9605 88.0626 62.9129 90.2186 62.2593C90.5831 62.1536 90.5623 62.3266 90.4998 62.5573C89.7603 65.5175 88.3438 68.1605 86.2607 70.5152C85.3754 71.5148 84.3443 72.3894 83.3757 73.3217C81.7821 74.8498 80.6156 76.5894 80.2094 78.7135C80.126 79.1363 80.1052 79.5688 80.0115 79.9917C79.5324 81.9524 78.4804 83.6247 76.8764 84.9799C75.8557 85.8256 74.6059 86.1332 73.2519 86.1332Z" fill="#0017AF"/>
<path d="M92.1348 45.8538C92.166 48.593 91.6036 51.2457 90.8641 53.8791C90.6141 54.7729 90.4267 55.6764 90.208 56.5702C89.7184 58.5405 88.354 59.6938 86.1876 60.011C85.8959 60.0494 85.7918 59.9629 85.8126 59.7034C85.9376 57.7427 86.0626 55.7917 86.1771 53.831C86.2396 52.7258 86.3647 51.6301 86.3438 50.5248C86.2917 47.2955 87.6562 44.614 89.9788 42.2881C90.3746 41.8941 90.7808 41.5 91.187 41.1156C91.4578 40.8561 91.5099 40.8753 91.5932 41.2213C91.9785 42.7399 92.166 44.2872 92.1348 45.8538Z" fill="#0017AF"/>
<path d="M12.2483 39.9141C12.2483 38.8953 12.5712 38.0976 12.9774 37.3191C14.6543 34.0705 16.1333 30.7451 17.9352 27.5446C18.7892 26.0165 19.7579 24.546 20.7681 23.1043C21.0389 22.7102 21.3723 22.3546 21.7681 22.0663C22.0909 21.826 22.1639 21.8453 22.2368 22.2297C22.518 23.729 22.4554 25.2091 21.9347 26.6604C20.8411 29.7071 19.4871 32.6577 18.0602 35.5795C16.8936 37.9726 15.7063 40.3658 14.5293 42.7589C14.2898 43.2395 14.2793 43.2395 13.8731 42.8647C13.4878 42.5187 13.1232 42.1727 12.842 41.7402C12.4567 41.1347 12.2171 40.5003 12.2483 39.9141Z" fill="#0017AF"/>
<path d="M7.6969 42.8836C7.6969 42.2301 7.6969 41.7111 7.6969 41.2017C7.6969 41.0864 7.63442 40.9326 7.78024 40.8653C7.90522 40.8077 7.99895 40.923 8.09269 40.9807C10.0091 42.2013 11.3736 43.7775 11.9568 45.9015C12.8317 49.0924 13.467 52.3217 13.8732 55.599C14.0607 57.1464 14.2274 58.6938 14.4149 60.2411C14.4565 60.616 14.3315 60.9716 14.3315 61.3368C14.3315 61.481 14.2378 61.6059 14.092 61.6444C13.9045 61.702 13.842 61.5386 13.7587 61.4425C11.7902 59.0494 10.3528 56.416 9.37377 53.5519C8.41555 50.7166 7.92602 47.8045 7.74896 44.8347C7.72813 44.1427 7.72814 43.4411 7.6969 42.8836Z" fill="#0017AF"/>
<path d="M79.1156 24.2677C79.1156 24.1812 79.1052 24.1427 79.1156 24.1043C79.1468 23.8929 78.9906 23.5853 79.2197 23.4988C79.4072 23.4219 79.5635 23.7199 79.7197 23.8544C80.5842 24.6233 81.0424 25.6228 81.5111 26.6128C83.3338 30.3995 85.1461 34.1959 86.9688 37.9922C87.0521 38.1748 87.125 38.3575 87.2188 38.5401C87.7291 39.53 87.5625 40.395 86.6876 41.135C86.3127 41.4522 85.9481 41.7694 85.5732 42.0865C85.4065 42.2307 85.2815 42.2691 85.1461 42.0289C82.8026 37.8096 80.5737 33.5423 79.6155 28.8233C79.303 27.3048 79.1573 25.767 79.1156 24.2677Z" fill="#0017AF"/>
<path d="M50.7544 35.118C52.8271 35.0699 54.8372 35.3871 56.7536 36.1272C58.8263 36.9249 60.5449 38.1551 61.9926 39.7121C63.7841 41.6439 65.1693 43.7968 66.1171 46.1803C66.815 47.9295 67.0649 49.7748 67.1378 51.6298C67.2628 54.8495 66.5962 57.925 64.9193 60.7506C62.3155 65.1236 58.493 68.1223 53.0666 69.0353C48.3588 69.8234 44.0885 68.7566 40.4327 65.9214C36.6206 62.9612 34.4959 59.0975 33.8189 54.5707C33.0481 49.4096 34.4854 44.7579 37.9642 40.6636C40.7243 37.415 44.3385 35.5697 48.8067 35.1757C49.14 35.1468 49.4732 35.118 49.7961 35.1084C50.119 35.1084 50.4419 35.118 50.7544 35.118ZM60.1491 48.1698C60.0553 48.0641 59.9408 48.0641 59.8366 48.0448C58.8992 47.843 57.9722 47.6412 57.0349 47.449C55.4517 47.1126 53.8686 46.8146 52.2958 46.4494C51.296 46.2187 51.0564 45.8151 51.1918 44.8732C51.473 42.8645 51.6709 40.8462 51.848 38.8375C51.8584 38.6837 51.9417 38.4819 51.6917 38.3954C51.4418 38.3089 51.3689 38.5011 51.2647 38.6356C50.0357 40.2022 48.7754 41.7592 47.6505 43.4027C46.8069 44.6425 45.6925 45.0174 44.151 44.6906C43.6094 44.5753 43.0782 44.4119 42.547 44.2581C41.2243 43.8833 39.9015 43.5084 38.5058 43.4123C37.9955 43.3739 37.9955 43.4027 38.1829 43.8352C38.8391 45.2865 39.4744 46.7377 40.2972 48.1217C40.7868 48.9483 41.0368 49.8517 40.9639 50.8128C40.8805 51.8892 40.3806 52.8023 39.6515 53.6C38.5995 54.7437 37.5684 55.8971 36.7873 57.2138C36.7143 57.3387 36.5894 57.4444 36.6206 57.627C36.6727 57.627 36.7248 57.627 36.7768 57.6174C38.1204 57.1945 39.4953 56.8293 40.7972 56.3103C41.2868 56.1181 41.7554 55.8971 42.2866 55.8009C42.8178 55.7144 43.2553 55.8682 43.599 56.243C43.7969 56.4641 43.9531 56.7044 44.0573 56.9735C45.1196 59.53 46.4319 61.9904 47.661 64.4797C47.6922 64.547 47.7026 64.6527 47.8693 64.6527C47.9943 64.3259 48.1713 63.9991 48.2338 63.6532C48.7442 60.8083 49.3379 57.973 49.7024 55.1089C49.9107 53.4943 50.6502 52.2737 52.3479 51.6394C53.8894 51.0627 55.41 50.438 56.9099 49.7748C58.0139 49.2847 59.0867 48.7464 60.1491 48.1698ZM60.7115 42.6146C60.6386 43.172 60.7323 43.643 60.7323 44.1139C60.7323 46.459 60.8052 48.8041 60.5969 51.1396C60.399 53.3886 59.795 55.5414 58.6805 57.5598C57.2223 60.2124 55.0247 62.2403 52.3167 63.8165C50.6919 64.7584 48.9213 65.4408 47.1819 66.1809C47.0152 66.2577 46.7132 66.2577 46.7236 66.4596C46.734 66.6326 47.0152 66.6806 47.1923 66.7575C48.5879 67.3534 50.0357 67.3438 51.4938 67.0362C54.431 66.4211 56.8682 64.9699 59.0554 63.1053C60.9927 61.4522 62.5759 59.5492 63.5029 57.2522C64.9089 53.773 64.8673 50.2842 63.4924 46.805C62.8571 45.2769 61.9614 43.8833 60.7115 42.6146Z" fill="#0017AF"/>
<path d="M50.4208 70.9189C52.7018 70.9189 54.5245 72.6105 54.5245 74.7153C54.5245 76.8201 52.6601 78.5405 50.3791 78.5309C48.1086 78.5213 46.265 76.8009 46.2754 74.6769C46.2858 72.5913 48.1294 70.9189 50.4208 70.9189Z" fill="#0017AF"/>
<path d="M38.0891 89.5677C37.7141 88.5086 37.3391 87.4495 36.9642 86.3905C36.8184 85.9824 36.8705 85.9241 37.2871 85.8172C37.485 85.7686 37.5787 85.8269 37.6412 86.0018C38.162 87.4787 38.6828 88.9458 39.2035 90.4227C39.2452 90.5393 39.2973 90.685 39.1306 90.7433C38.8807 90.8308 38.6411 90.996 38.3495 90.7725C37.6725 90.2478 36.9851 89.7426 36.2977 89.2373C35.7977 88.8681 35.3082 88.4989 34.7978 88.12C34.6728 88.2754 34.7874 88.3823 34.8186 88.4892C35.1519 89.4414 35.4748 90.4033 35.8289 91.3555C35.9331 91.6469 35.8498 91.7732 35.5477 91.8704C35.2457 91.9676 35.152 91.8315 35.0686 91.5984C34.5895 90.2187 34.1 88.839 33.6209 87.4593C33.5688 87.3038 33.3813 87.0998 33.6417 86.9637C33.8917 86.8374 34.1521 86.7208 34.4541 86.954C35.5373 87.7799 36.6309 88.5863 37.7141 89.4025C37.8183 89.4802 37.9224 89.5482 38.0266 89.6163C38.0578 89.6065 38.0682 89.5871 38.0891 89.5677Z" fill="#0017AF"/>
<path d="M56.097 85.605C56.0554 86.3532 55.7637 86.8875 55.0346 87.1402C54.8055 87.2179 54.7638 87.3248 54.8367 87.5288C55.0346 88.0729 55.2221 88.6073 55.3991 89.1611C55.4408 89.3069 55.6387 89.4818 55.42 89.6178C55.2533 89.715 54.7534 89.5109 54.6805 89.3263C54.5659 89.0348 54.4722 88.7336 54.3784 88.4421C54.3264 88.2964 54.2639 88.1604 54.243 88.0146C54.1597 87.3442 53.7118 87.111 53.0557 87.0819C52.8369 87.0721 52.7328 87.111 52.6911 87.3151C52.5974 87.7911 52.4828 88.2672 52.3995 88.7433C52.3474 89.0154 52.2225 89.0931 51.9308 89.0348C51.66 88.9862 51.5455 88.8988 51.608 88.6073C51.9204 87.1207 52.2224 85.6342 52.5245 84.1476C52.5661 83.9241 52.6703 83.8269 52.9307 83.8755C53.5139 83.9921 54.1076 84.0699 54.6909 84.2059C55.5658 84.4099 56.0866 84.9735 56.097 85.605ZM54.0868 86.6543C54.795 86.6641 55.17 86.3823 55.2742 85.8479C55.3679 85.3718 55.1284 84.9832 54.5868 84.8277C54.2431 84.7306 53.8889 84.682 53.5348 84.614C53.3473 84.5751 53.2327 84.6625 53.1911 84.8374C53.0973 85.2844 53.014 85.741 52.9203 86.188C52.8786 86.3629 52.9411 86.4503 53.1182 86.4892C53.4723 86.5475 53.8368 86.6058 54.0868 86.6543Z" fill="#0017AF"/>
<path d="M44.2237 89.5844C43.255 89.5941 42.6301 89.2832 42.2343 88.6905C41.6094 87.7578 41.3594 86.7181 41.651 85.6299C41.8802 84.7749 42.5885 84.4057 43.4634 84.2697C44.2966 84.1433 44.9944 84.3571 45.4527 85.0567C45.536 85.183 45.7339 85.3384 45.536 85.5133C45.3485 85.6785 44.9319 85.6299 44.8069 85.4259C44.4632 84.8526 43.9112 84.7846 43.2863 84.9206C42.6822 85.0567 42.3176 85.5133 42.3176 86.1837C42.3176 86.8736 42.4426 87.544 42.7863 88.1659C43.2654 89.0403 44.4632 89.2443 45.2756 88.6322C45.4214 88.5254 45.4944 88.3893 45.4735 88.2144C45.4631 88.1561 45.4527 88.0881 45.4423 88.0298C45.2964 87.272 45.2965 87.272 44.4841 87.4274C44.2653 87.4663 44.0258 87.5732 43.9529 87.2428C43.9008 87.0388 43.932 86.9125 44.1924 86.8639C44.6611 86.7764 45.1298 86.6793 45.5985 86.5821C45.8172 86.5335 45.9422 86.5918 45.9839 86.825C46.0568 87.2137 46.1193 87.612 46.2443 87.991C46.3901 88.4379 46.2026 88.7391 45.8589 88.9917C45.3381 89.3998 44.7132 89.5747 44.2237 89.5844Z" fill="#0017AF"/>
<path d="M49.494 88.2888C49.869 88.2888 50.2335 88.2985 50.6085 88.2888C50.848 88.2791 50.9314 88.3957 50.9418 88.6094C50.9522 88.8329 50.8272 88.9107 50.5876 88.9009C49.6398 88.8815 48.6921 88.9301 47.7442 88.9787C47.4526 88.9884 47.3485 88.8912 47.3485 88.6289C47.3276 87.6087 47.2547 86.5885 47.2547 85.5683C47.2547 85.1019 47.213 84.6452 47.1922 84.1789C47.1714 83.8777 47.2651 83.7319 47.6088 83.7222C48.4629 83.7125 49.3066 83.6736 50.1606 83.6639C50.4002 83.6639 50.7335 83.5376 50.7335 83.9651C50.7335 84.3829 50.3793 84.2566 50.1502 84.276C49.5669 84.3149 48.9837 84.3246 48.4004 84.3343C48.14 84.3343 47.9942 84.4218 48.0151 84.6841C48.0359 85.0144 48.0463 85.3545 48.0671 85.6849C48.0775 85.8792 48.1817 85.9472 48.4108 85.9375C48.9837 85.9083 49.5565 85.9083 50.1294 85.8986C50.3481 85.8889 50.4835 85.9472 50.4939 86.1804C50.5044 86.4233 50.3793 86.5107 50.1294 86.5107C49.5878 86.5205 49.0461 86.5593 48.4941 86.569C48.2025 86.569 48.0775 86.6662 48.0983 86.948C48.1192 87.3075 48.1088 87.667 48.1296 88.0265C48.14 88.2402 48.2442 88.3471 48.515 88.318C48.8379 88.2791 49.1816 88.3082 49.5149 88.3082C49.4941 88.318 49.494 88.2985 49.494 88.2888Z" fill="#0017AF"/>
<path d="M62.2736 90.4189C62.2736 90.8269 62.284 91.1281 62.2632 91.4293C62.2528 91.5654 62.3674 91.818 62.0862 91.7985C61.8466 91.7791 61.5237 91.7597 61.5237 91.4002C61.5237 91.099 61.5029 90.8075 61.5237 90.5063C61.5341 90.2634 61.4299 90.1468 61.1904 90.0788C60.6696 89.9233 60.1593 89.7387 59.6489 89.5638C59.4302 89.4861 59.274 89.525 59.1282 89.6998C58.9615 89.9039 58.7844 90.1079 58.597 90.3023C58.3782 90.5452 58.0033 90.5743 57.7533 90.3703C57.5867 90.2342 57.7429 90.1468 57.8158 90.0594C58.4824 89.3306 59.149 88.6116 59.8155 87.8829C60.2842 87.3777 60.753 86.8724 61.2217 86.3575C61.3883 86.1729 61.5549 86.066 61.8361 86.1729C62.0965 86.27 62.159 86.4352 62.159 86.6684C62.1799 87.9509 62.2007 89.2432 62.2736 90.4189ZM61.4612 87.2611C61.4195 87.2514 61.3883 87.2416 61.3466 87.2222C61.055 87.5429 60.7634 87.8732 60.4717 88.1938C59.7739 88.9517 59.7739 88.9614 60.7842 89.2821C61.5133 89.5152 61.4612 89.6124 61.4612 88.8254C61.4612 88.3104 61.4612 87.7858 61.4612 87.2611Z" fill="#0017AF"/>
<path d="M58.4926 85.2818C58.4717 85.3498 58.4613 85.4081 58.4405 85.4664C57.9614 86.8947 57.4822 88.3327 57.0239 89.761C56.9198 90.0719 56.7636 90.101 56.4615 90.0136C56.1699 89.9262 56.1907 89.761 56.2636 89.5569C56.6386 88.4299 57.0031 87.3028 57.3781 86.1854C57.4927 85.8454 57.6073 85.4956 57.7218 85.1555C57.7843 84.9709 57.9197 84.932 58.0968 85.0001C58.253 85.0584 58.4821 85.0389 58.4926 85.2818Z" fill="#0017AF"/>
<path d="M41.2344 90.0399C41.2448 90.2925 40.9844 90.2537 40.8177 90.3119C40.6094 90.3897 40.5053 90.3022 40.4428 90.1079C40.1616 89.1557 39.8595 88.2035 39.5783 87.2513C39.4117 86.717 39.2555 86.1728 39.0888 85.6482C39.0055 85.3858 39.1721 85.3373 39.3804 85.279C39.5887 85.2207 39.7658 85.1818 39.8387 85.4441C40.2866 86.9307 40.7448 88.427 41.2031 89.9136C41.2135 89.9427 41.2136 89.9816 41.2344 90.0399Z" fill="#0017AF"/>
<path d="M31.298 47.2981C30.6002 46.8415 29.9752 46.4334 29.3503 46.0253C28.6837 45.5881 28.0171 45.1606 27.3505 44.7331C27.0485 44.5387 27.0068 43.81 27.2776 43.5865C27.3714 43.5088 27.4756 43.5477 27.5797 43.5671C29.3712 43.9558 31.1522 44.3444 32.9436 44.7136C33.2665 44.7816 33.2457 44.9662 33.1936 45.1897C33.1415 45.4326 33.0686 45.5978 32.7145 45.5298C31.5376 45.2772 30.3606 45.0245 29.1941 44.7233C29.0274 44.6845 28.8608 44.6456 28.6629 44.6748C29.2566 45.0634 29.8399 45.452 30.4335 45.8407C31.0793 46.2585 31.7146 46.686 32.3604 47.1038C32.5478 47.2204 32.6728 47.337 32.6103 47.5896C32.5478 47.8325 32.4229 47.9394 32.1625 47.9783C30.7356 48.1823 29.2982 48.4058 27.8713 48.6195C27.8088 48.6292 27.7568 48.639 27.6943 48.707C28.5483 48.8721 29.4024 49.0373 30.2565 49.2122C30.7668 49.3094 31.2667 49.4357 31.7771 49.5328C32.1833 49.6106 32.0479 49.8535 32.0063 50.077C31.9646 50.3199 31.85 50.4073 31.5688 50.349C29.8086 49.9604 28.0484 49.5814 26.2881 49.2122C25.9861 49.1442 25.9132 49.0179 25.9861 48.7361C26.1424 48.1046 26.1215 48.1143 26.8298 48.0171C28.2254 47.8228 29.6107 47.6188 31.0064 47.4147C31.0584 47.3661 31.1314 47.337 31.298 47.2981Z" fill="#0017AF"/>
<path d="M34.7459 69.1127C35.5999 68.6995 36.3707 68.3342 37.1414 67.9594C37.6934 67.6903 38.2558 67.4308 38.7974 67.1521C39.0057 67.0464 39.1724 67.0271 39.3703 67.1809C39.5682 67.3347 39.589 67.4885 39.5161 67.6999C39.0786 68.9205 38.6516 70.1507 38.2142 71.3713C38.1725 71.4867 38.1413 71.602 38.1621 71.7462C38.3912 71.4867 38.6204 71.2176 38.8495 70.9581C39.5057 70.218 40.1827 69.4876 40.8284 68.7379C41.0472 68.4784 41.193 68.6033 41.3805 68.7379C41.568 68.8821 41.7346 68.9878 41.5055 69.2377C40.5056 70.3045 39.5265 71.3906 38.5475 72.467C38.3392 72.6881 38.1309 72.9091 37.933 73.1398C37.8184 73.2743 37.7038 73.2839 37.5684 73.1686C37.4747 73.0821 37.3705 73.0052 37.256 72.9379C36.9852 72.7746 36.9643 72.5823 37.0685 72.3036C37.5268 71.0638 37.9642 69.8143 38.4121 68.5649C38.4537 68.44 38.4954 68.315 38.5579 68.142C38.2871 68.1324 38.11 68.2766 37.9226 68.3727C36.7352 68.9494 35.5478 69.5356 34.3604 70.1123C33.9647 70.3045 33.3918 70.1123 33.2043 69.7471C33.121 69.5933 33.2564 69.5164 33.3397 69.4299C34.5063 68.1516 35.6728 66.883 36.829 65.5951C37.0373 65.3644 37.183 65.4317 37.3809 65.5855C37.5788 65.7489 37.7247 65.8642 37.4747 66.1141C36.6623 66.9599 35.8707 67.8152 35.0687 68.6706C34.9542 68.786 34.8292 68.8629 34.7459 69.1127Z" fill="#0017AF"/>
<path d="M57.8159 30.3314C57.2951 31.4585 56.7847 32.5855 56.264 33.7126C56.0661 34.1401 56.0556 34.1304 55.5869 33.9652C55.2745 33.8486 55.3266 33.6932 55.4308 33.4697C56.1182 31.9734 56.8056 30.4771 57.493 28.9905C57.5659 28.8448 57.5763 28.563 57.8576 28.6408C58.1284 28.7185 58.4616 28.7476 58.5241 29.1266C58.6595 29.9622 58.8366 30.788 58.9928 31.6236C59.1282 32.3621 59.274 33.1005 59.4927 33.8486C59.8989 32.9645 60.3052 32.0803 60.7114 31.1961C60.8468 30.9143 60.9926 30.6326 61.0967 30.3411C61.2009 30.069 61.3467 30.001 61.6383 30.1273C61.9091 30.2439 62.0445 30.3411 61.8987 30.652C61.3571 31.7888 60.8468 32.9353 60.326 34.0721C60.1594 34.4413 59.9927 34.8008 59.8156 35.1603C59.7427 35.3061 59.7323 35.5684 59.4824 35.5004C59.2116 35.4227 58.8678 35.3935 58.7949 35.0243C58.597 33.9069 58.3783 32.7993 58.17 31.6916C58.0867 31.2447 57.993 30.7978 57.9096 30.3508C57.8784 30.3314 57.8471 30.3314 57.8159 30.3314Z" fill="#0017AF"/>
<path d="M49.6502 31.1476C49.6606 32.605 48.7649 33.5669 47.3067 33.7904C46.9005 33.8487 46.4838 33.8778 46.0881 33.9653C45.6714 34.0624 45.5569 33.907 45.5048 33.5572C45.3173 32.3232 45.1194 31.0796 44.9215 29.8456C44.859 29.457 44.807 29.0586 44.7341 28.6699C44.6924 28.4368 44.7549 28.3104 45.0049 28.2813C45.5673 28.2036 46.1298 28.1064 46.7026 28.0578C47.8691 27.9704 48.869 28.5631 49.3065 29.5833C49.5356 30.1274 49.6189 30.6909 49.6502 31.1476ZM48.7544 31.2059C48.7232 30.8075 48.6815 30.312 48.494 29.8456C48.2128 29.146 47.6087 28.738 46.8588 28.7574C46.5567 28.7671 46.2547 28.8351 45.9527 28.8643C45.7235 28.8934 45.6819 28.9906 45.7131 29.1946C45.9214 30.4286 46.1089 31.6722 46.3068 32.9062C46.3381 33.0811 46.4109 33.1685 46.6088 33.1783C47.8899 33.2463 48.7648 32.4787 48.7544 31.2059Z" fill="#0017AF"/>
<path d="M72.0436 48.0836C72.6894 48.0447 73.3872 48.1516 73.9705 48.5694C75.3661 49.5507 75.2411 51.5523 73.6892 52.3101C72.5331 52.8639 71.2937 52.9514 70.0542 52.5336C69.096 52.213 68.6482 51.494 68.5857 50.5806C68.5336 49.7548 68.8773 49.0746 69.6377 48.618C70.3459 48.1807 71.1479 48.0739 72.0436 48.0836ZM72.0124 48.9095C71.3041 48.9095 70.6063 48.9581 69.9813 49.337C69.4293 49.677 69.3044 50.1629 69.3773 50.7361C69.4398 51.2511 69.7522 51.6106 70.2521 51.7563C71.3562 52.0867 72.4602 52.0089 73.5018 51.5134C74.0434 51.2608 74.2204 50.7847 74.1788 50.2212C74.1475 49.6965 73.8767 49.337 73.3872 49.1038C72.9393 48.8997 72.4706 48.9095 72.0124 48.9095Z" fill="#0017AF"/>
<path d="M30.7253 59.6913C30.7253 60.1674 30.7461 60.5755 30.6316 60.9836C30.2879 62.1495 28.9547 62.509 27.9964 61.6929C27.2361 61.0419 26.9549 59.8662 27.3715 59.0598C27.4861 58.8363 27.6423 58.6323 27.861 58.4768C28.3401 58.127 28.4755 58.1659 28.6318 58.71C28.6838 58.8849 28.6422 58.9723 28.4756 59.0792C27.7048 59.5747 27.7777 60.7698 28.6005 61.2071C29.0692 61.4597 29.6212 61.2751 29.8087 60.7892C29.9337 60.4686 29.9025 60.1286 29.9025 59.7982C29.9129 59.293 29.84 58.778 30.0275 58.2825C30.4024 57.272 31.6627 56.9125 32.548 57.5829C33.3604 58.195 33.7353 59.5845 33.3291 60.4783C33.1833 60.7893 32.975 61.0613 32.6417 61.2265C32.5063 61.2945 32.3189 61.4208 32.2459 61.2071C32.173 61.003 31.8918 60.7795 32.173 60.5366C32.9125 59.9148 32.9333 58.9335 32.2251 58.3019C31.7356 57.8647 30.9857 58.0493 30.7982 58.6517C30.6732 59.0112 30.7357 59.3901 30.7253 59.6913Z" fill="#0017AF"/>
<path d="M70.3246 45.1881C70.3037 44.7509 70.3245 44.3233 70.4495 43.8958C70.8037 42.7396 72.1681 42.4093 73.095 43.2351C74.0324 44.0804 74.1262 45.6059 73.2721 46.354C73.2096 46.4026 73.1576 46.4706 73.0847 46.4998C72.9076 46.5678 72.7514 46.8301 72.543 46.5969C72.2931 46.3249 72.3452 45.9848 72.6264 45.8196C73.1055 45.5379 73.2409 45.1006 73.043 44.4691C72.8659 43.9056 72.5222 43.6141 72.0327 43.6141C71.5848 43.6238 71.3244 43.8473 71.2203 44.2845C71.1057 44.7606 71.1473 45.2464 71.1473 45.7322C71.1473 46.0723 71.0953 46.4026 70.9495 46.7135C70.4808 47.7046 69.1163 47.9378 68.3456 47.141C67.6582 46.4318 67.3978 45.5767 67.6478 44.6148C67.7623 44.1873 68.0227 43.8473 68.4289 43.6238C68.5643 43.5461 68.7727 43.41 68.856 43.6432C68.9289 43.8473 69.1997 44.0804 68.9081 44.3136C68.1686 44.9063 68.0956 45.8294 68.7518 46.4901C68.981 46.7232 69.2622 46.8496 69.6059 46.7718C69.96 46.6941 70.1787 46.4803 70.2621 46.15C70.335 45.8294 70.3037 45.5087 70.3246 45.1881Z" fill="#0017AF"/>
<path d="M54.2019 33.732C53.1916 33.6543 52.1917 33.5765 51.1814 33.4988C50.9001 33.4794 50.8272 33.3434 50.8481 33.1005C51.0043 31.4293 51.1605 29.7678 51.3063 28.0966C51.3272 27.8246 51.4418 27.7177 51.7334 27.7468C52.7749 27.8343 53.8269 27.912 54.8684 27.9897C55.1809 28.0092 55.2642 28.1744 55.233 28.4464C55.1913 28.7379 54.9934 28.7185 54.7643 28.6893C54.0456 28.6213 53.3374 28.5824 52.6187 28.5144C52.2854 28.4853 52.1188 28.5824 52.1292 28.9128C52.1292 29.2334 52.0875 29.554 52.0563 29.8747C52.0354 30.1467 52.1604 30.2536 52.4521 30.273C53.0666 30.3119 53.6707 30.3702 54.2748 30.4091C54.556 30.4285 54.6289 30.5548 54.6184 30.7977C54.608 31.0698 54.4414 31.1281 54.2019 31.1086C53.6082 31.0601 53.0145 31.0212 52.4104 30.9629C52.0875 30.9337 51.9313 31.0503 51.9104 31.3418C51.8792 31.7208 51.8479 32.1094 51.8167 32.4883C51.7959 32.7312 51.9 32.8576 52.1708 32.877C52.8583 32.9256 53.5457 32.9741 54.2331 33.0324C54.483 33.0519 54.8267 32.9353 54.8163 33.3822C54.8059 33.8389 54.4831 33.7417 54.2019 33.732Z" fill="#0017AF"/>
<path d="M64.1588 39.3134C64.1484 38.7207 64.2734 38.3417 64.5962 38.0308C64.7004 37.9239 64.8462 37.7102 65.0024 37.9142C65.1378 38.0891 65.4607 38.2446 65.242 38.5458C64.7108 39.2842 64.9191 40.2073 65.7523 40.6833C66.044 40.8485 66.346 40.9068 66.6585 40.7319C66.9813 40.5668 67.1272 40.3141 67.1167 39.9741C67.1063 39.566 66.9606 39.1968 66.8356 38.8178C66.7106 38.4195 66.6064 38.0308 66.6273 37.613C66.6585 36.758 67.398 36.1653 68.3041 36.2333C69.5644 36.3305 70.8767 38.1183 70.0748 39.3328C70.0227 39.4202 69.9706 39.5077 69.8977 39.5757C69.7623 39.6923 69.6686 39.9255 69.4186 39.7312C69.1374 39.5077 69.0748 39.2454 69.2623 39.051C69.8456 38.4 69.4186 37.205 68.5333 37.0106C67.95 36.8843 67.4605 37.2438 67.4709 37.8074C67.4709 38.196 67.6271 38.5652 67.7417 38.9247C67.8875 39.3619 68.0229 39.8089 67.95 40.2753C67.7937 41.3635 66.6064 41.9465 65.5961 41.3829C64.7004 40.8874 64.2421 40.1101 64.1588 39.3134Z" fill="#0017AF"/>
<path d="M30.8711 38.8127C30.8607 39.4346 31.4232 39.7844 32.0377 39.5609C32.4022 39.4249 32.6938 39.1917 32.9959 38.9585C33.35 38.6767 33.7249 38.4241 34.1728 38.2589C35.3289 37.8411 36.4746 38.6767 36.3288 39.8232C36.2038 40.8046 35.2768 41.7956 34.2978 41.9997C33.9749 42.0677 33.6625 42.0579 33.3604 41.9414C33.2146 41.8831 32.9647 41.8442 33.1001 41.6207C33.2146 41.4361 33.2563 41.1349 33.6 41.1835C34.5894 41.3292 35.1936 40.9892 35.5164 40.1147C35.6414 39.7649 35.6102 39.4249 35.2977 39.1625C35.0061 38.9099 34.6103 38.8808 34.2249 39.0751C33.8396 39.2694 33.5063 39.5512 33.1625 39.8038C32.8605 40.0273 32.5272 40.2216 32.1626 40.3382C31.1107 40.6782 30.0796 39.969 30.1004 38.9196C30.1212 38.0257 30.9336 37.025 31.8502 36.7626C32.2356 36.6557 32.6105 36.6655 32.9855 36.8112C33.1209 36.8598 33.4021 36.8889 33.2459 37.1221C33.1105 37.3067 33.0896 37.6662 32.673 37.5496C31.7564 37.3067 30.8816 37.9286 30.8711 38.8127Z" fill="#0017AF"/>
<path d="M41.7445 35.4521C40.953 35.4327 40.3697 35.1217 40.026 34.4902C39.4219 33.3728 38.8491 32.236 38.2554 31.1089C38.0887 30.798 38.3387 30.7494 38.5261 30.6523C38.7344 30.5454 38.9011 30.4871 39.0365 30.7592C39.5677 31.8279 40.1198 32.887 40.6718 33.9461C41.0884 34.7428 41.7445 34.9371 42.5882 34.529C43.3277 34.1695 43.536 33.5769 43.161 32.8287C42.6402 31.8085 42.1091 30.798 41.5779 29.7778C41.3696 29.3698 41.4008 29.3017 41.8695 29.1366C42.0674 29.0685 42.1924 29.0977 42.2862 29.2823C42.859 30.4191 43.4631 31.5365 44.0151 32.683C44.4005 33.4991 44.1297 34.3153 43.3589 34.8594C42.8694 35.2286 42.3278 35.4424 41.7445 35.4521Z" fill="#0017AF"/>
<path d="M33.6833 61.8657C34.6311 61.8657 35.506 62.5556 35.8393 63.5758C36.1205 64.4308 35.8289 65.1789 34.9748 65.6939C33.902 66.3449 32.8189 66.957 31.7461 67.608C31.444 67.7926 31.3398 67.6566 31.1836 67.4428C31.017 67.2096 31.0274 67.0639 31.3086 66.9084C32.3397 66.3157 33.3604 65.7036 34.3811 65.1109C35.3394 64.5474 35.4331 63.6729 34.6103 62.9539C34.1625 62.5653 33.6521 62.5167 33.0792 62.8568C32.0064 63.4786 30.9336 64.1005 29.8817 64.7417C29.5796 64.9263 29.4338 64.8777 29.2568 64.6057C29.1005 64.3628 29.1214 64.217 29.3818 64.0713C30.465 63.4495 31.5481 62.8082 32.6209 62.1766C32.9542 61.9726 33.298 61.8657 33.6833 61.8657Z" fill="#0017AF"/>
<path d="M65.8046 63.7381C65.4505 63.7478 65.2318 63.466 65.3672 63.2328C65.8775 62.3389 66.4087 61.4451 66.9191 60.5512C67.0336 60.3471 67.1586 60.3277 67.3669 60.4346C68.9917 61.2604 70.6166 62.0766 72.2414 62.9025C72.4185 62.9899 72.4497 63.0968 72.3559 63.262C71.8248 64.1753 71.2831 65.0886 70.7624 66.0117C70.6374 66.2351 70.4916 66.138 70.3354 66.0602C70.1479 65.9728 70.0229 65.8756 70.1583 65.6619C70.5228 65.04 70.877 64.4085 71.2519 63.7964C71.4186 63.5243 71.4289 63.3591 71.0852 63.2231C70.7311 63.0774 70.3978 62.8928 70.0645 62.7082C69.8562 62.5916 69.7417 62.6207 69.6271 62.8247C69.3355 63.3494 69.0126 63.8644 68.721 64.3988C68.596 64.632 68.4606 64.7097 68.1898 64.5737C67.919 64.4474 67.9502 64.3016 68.0752 64.0976C68.3773 63.5923 68.6689 63.0676 68.9814 62.5624C69.1376 62.3195 69.0751 62.1835 68.8147 62.0669C68.4085 61.8823 68.0127 61.6782 67.6169 61.4645C67.367 61.3285 67.2524 61.3965 67.1274 61.6199C66.7837 62.2515 66.4087 62.8636 66.0442 63.4854C65.9713 63.5923 65.9192 63.7186 65.8046 63.7381Z" fill="#0017AF"/>
<path d="M74.6575 56.2902C74.6471 57.5144 73.8972 58.3111 72.6473 58.4375C72.4911 58.4569 72.2412 58.5249 72.2412 58.282C72.2308 58.0585 72.1787 57.767 72.5016 57.6407C72.5745 57.6116 72.6578 57.6116 72.7411 57.6019C73.3765 57.5339 73.7618 57.2132 73.8972 56.6302C74.043 56.0181 73.8347 55.4546 73.2515 55.1534C72.2932 54.6579 71.2517 54.4733 70.1685 54.7064C69.4811 54.8522 69.1686 55.2797 69.1061 56.0181C69.0541 56.5525 69.2832 56.8829 69.9081 57.1841C70.1997 57.3201 70.2935 57.767 70.0852 58.0002C69.9915 58.0974 69.8873 58.0585 69.7935 58.0197C69.0853 57.767 68.5957 57.3298 68.4187 56.6302C68.0333 55.1437 69.0437 53.8708 70.7414 53.7834C71.6579 53.7348 72.5745 53.8806 73.4077 54.2886C74.2514 54.7162 74.6575 55.3866 74.6575 56.2902Z" fill="#0017AF"/>
<path d="M61.722 71.0287C61.8157 71.7574 61.899 72.4959 62.0032 73.2343C62.0761 73.759 62.0136 73.8658 61.5136 74.1282C61.2949 74.2448 61.2324 74.1768 61.2116 73.9727C61.1075 72.9234 60.9825 71.874 60.9096 70.8247C60.8783 70.3874 60.743 70.0085 60.4617 69.6587C60.2118 69.3381 59.993 68.998 59.7431 68.6774C59.5348 68.4053 59.7431 68.3082 59.9305 68.1916C60.118 68.075 60.3055 67.939 60.4409 68.2207C61.0554 69.4353 62.1282 70.1445 63.4093 70.6498C63.9925 70.883 64.5446 71.1939 65.1174 71.4465C65.3674 71.5631 65.4194 71.6311 65.159 71.8157C64.8153 72.0586 64.5341 72.1266 64.1279 71.8837C63.4718 71.4951 62.7531 71.1745 62.0657 70.8247C61.8261 70.6886 61.6699 70.6886 61.722 71.0287Z" fill="#0017AF"/>
<path d="M36.735 32.3543C36.735 32.4612 36.6517 32.5098 36.5892 32.5681C36.2976 32.8207 36.0164 33.083 35.7039 33.3259C35.4435 33.5203 35.4123 33.6757 35.6622 33.9284C36.7038 34.9583 37.7245 35.9979 38.7556 37.0375C39.0473 37.329 38.9431 37.6885 38.5265 37.8051C38.3598 37.8537 38.287 37.7371 38.1932 37.6496C37.4017 36.8626 36.6205 36.0659 35.8393 35.2789C35.5373 34.9777 35.2353 34.6862 34.9436 34.3753C34.777 34.1907 34.652 34.2296 34.4853 34.3753C34.1729 34.6571 33.8291 34.9194 33.5167 35.2109C33.3292 35.3858 33.2042 35.3275 33.0584 35.172C32.923 35.0263 32.8293 34.9097 33.0272 34.7348C34.0583 33.8506 35.079 32.9665 36.1101 32.092C36.2039 32.0143 36.2976 31.9365 36.4226 32.024C36.558 32.1211 36.6726 32.2183 36.735 32.3543Z" fill="#0017AF"/>
<path d="M63.9711 31.4951C64.1273 31.5145 64.2002 31.5826 64.2731 31.6506C65.2626 32.4959 66.252 33.3412 67.2519 34.1768C67.429 34.3225 67.5435 34.4391 67.3248 34.6626C67.1061 34.8764 66.9707 34.8375 66.7728 34.6529C66.4812 34.3808 66.1583 34.1379 65.8666 33.8756C65.7 33.7298 65.5958 33.691 65.4188 33.8756C64.3876 34.9541 63.3357 36.0326 62.2941 37.1014C61.9817 37.422 61.6588 37.3734 61.4401 36.9848C61.3567 36.8293 61.4818 36.7516 61.5651 36.6641C62.6067 35.5856 63.6377 34.5071 64.7001 33.4481C64.9605 33.1857 64.9397 33.04 64.6689 32.8359C64.3564 32.6028 64.0752 32.3404 63.7835 32.0878C63.7002 32.0198 63.5648 31.9518 63.6586 31.8158C63.7419 31.6894 63.8357 31.5631 63.9711 31.4951Z" fill="#0017AF"/>
<path d="M69.6271 67.4374C69.6271 67.5443 69.5542 67.6026 69.4917 67.6706C68.5855 68.6131 67.6794 69.5458 66.7733 70.498C66.5858 70.7021 66.4399 70.7215 66.2212 70.5272C65.9817 70.3231 66.1066 70.1968 66.2629 70.0414C66.5232 69.779 66.7732 69.4973 67.044 69.2446C67.2523 69.0503 67.2628 68.924 67.0337 68.7297C66.065 67.933 65.1172 67.1265 64.159 66.3201C63.9819 66.1743 63.8049 66.0189 63.6278 65.8731C63.2737 65.5622 63.2945 65.3873 63.6903 65.0958C63.8673 64.9695 63.9611 65.0958 64.0652 65.1833C64.7839 65.776 65.4921 66.3784 66.2004 66.9711C66.6795 67.3694 67.1586 67.7581 67.6169 68.1661C67.8252 68.3605 67.9398 68.3216 68.1168 68.1273C68.3876 67.8164 68.6793 67.5346 68.9709 67.2431C69.0438 67.1654 69.1271 67.0488 69.2729 67.1168C69.4188 67.1848 69.5542 67.2917 69.6271 67.4374Z" fill="#0017AF"/>
<path d="M32.4127 56.0288C32.4439 56.2232 32.3294 56.2912 32.1419 56.3203C30.3401 56.5438 28.5278 56.7576 26.7259 56.9907C26.3822 57.0393 26.2884 56.8741 26.2468 56.6021C26.2051 56.33 26.2885 56.194 26.6113 56.1551C28.0591 55.99 29.5068 55.8054 30.965 55.6305C31.0587 55.6208 31.1524 55.5916 31.2357 55.5916C31.5065 55.5819 31.5899 55.475 31.5482 55.203C31.4337 54.552 31.3711 53.901 31.2566 53.25C31.2045 52.9488 31.3295 52.8516 31.6211 52.8128C31.9232 52.7836 31.9753 52.9294 32.0065 53.1626C32.1419 54.1147 32.2773 55.0766 32.4127 56.0288Z" fill="#0017AF"/>
<path d="M28.059 51.3331C29.3817 51.3331 30.7045 51.3428 32.0272 51.3233C32.0481 51.3233 32.0585 51.3331 32.0585 51.3525C32.2148 52.4407 31.9648 52.4018 28.9339 51.4497C28.8089 51.4108 28.6735 51.4108 28.5485 51.4594C25.9551 52.4018 25.8717 52.1589 25.8613 51.6634C25.8613 51.3914 25.9343 51.2456 26.2675 51.2553C26.8612 51.2748 27.4653 51.2651 28.059 51.2651C28.059 51.2845 28.059 51.3039 28.059 51.3331Z" fill="#0017AF"/>
<path d="M67.8456 58.5215C67.9601 58.5506 68.0643 58.5798 68.1685 58.6186C69.8037 59.1433 71.4285 59.6583 73.0637 60.1829C73.5741 60.3481 73.5949 60.4064 73.3866 60.8728C73.272 61.1449 73.0949 61.0574 72.9075 60.9991C71.4076 60.523 69.9182 60.0469 68.4184 59.5708C68.2413 59.5125 68.0643 59.464 67.8872 59.4057C67.5018 59.2794 67.4081 58.8324 67.7206 58.5798C67.7518 58.5506 67.8039 58.5409 67.8456 58.5215Z" fill="#0017AF"/>
<path d="M17.8736 110.934L20.7733 110.934L20.6733 121.433C20.6733 123.758 20.6483 125.832 18.1236 127.507C16.0988 128.857 13.1741 128.557 12.7492 128.557C10.3494 128.507 7.27476 127.157 6.67482 123.558C6.49984 122.433 6.44985 121.833 6.44985 120.233L6.29986 110.934L9.32454 110.934L9.37454 118.308C9.37454 118.308 9.37454 118.508 9.37454 118.683C9.37454 118.758 9.37454 118.833 9.37454 118.883L9.37454 119.433C9.42453 121.058 9.47452 122.883 9.77449 123.683C10.2994 125.158 11.3243 125.932 13.5491 125.957C16.6238 126.007 17.7486 124.858 17.7986 121.408L17.8736 110.934ZM37.1864 110.884L37.1864 118.508L37.1864 119.933L37.1864 126.857L37.1864 127.757L37.1864 128.282L35.5116 128.282L35.0367 128.282L26.0876 116.184L26.1876 128.282L23.3879 128.282L23.3879 110.884L25.0627 110.884L25.5627 110.884L34.4117 122.683L34.4617 110.884L37.1864 110.884ZM43.1415 128.282L40.3667 128.282L40.3667 110.884L43.1415 110.884L43.1415 128.282ZM49.1844 125.558L57.7335 125.583L57.7335 128.257L46.3347 128.257L46.3347 110.859L49.1344 110.834L49.1844 125.558ZM69.5959 110.884L76.3951 128.282C75.5952 128.282 75.3953 128.307 73.2955 128.282L71.6706 124.158L64.8964 124.133L63.2715 128.257C61.3217 128.282 61.1218 128.282 60.3469 128.282L67.1711 110.884L69.5959 110.884ZM65.7213 121.708L70.8957 121.708L68.296 114.809L65.7213 121.708ZM94.3561 118.983L94.3561 119.283L94.3811 128.307L92.0814 128.307L91.8814 125.982C91.8814 125.982 90.6565 128.482 86.6569 128.482C81.5825 128.482 78.5578 125.258 78.5578 119.183C78.5578 113.784 81.9574 110.584 86.507 110.534C92.7313 110.484 93.7062 115.084 93.7062 115.084L90.9815 115.534C90.9815 115.534 90.5815 112.884 86.6819 112.934C83.2073 112.984 81.3575 115.434 81.4075 119.308C81.5075 123.808 83.4823 126.057 86.9569 126.007C91.4564 125.982 91.8314 123.058 91.8314 123.058L91.8064 121.258L87.5818 121.258L87.5568 118.983L94.3561 118.983Z" fill="#0017AF"/>
</svg>
