<svg width="72" height="72" viewBox="0 0 72 72" fill="none" xmlns="http://www.w3.org/2000/svg">
<rect width="72" height="72" fill="#0017AF"/>
<path d="M45.1649 24.6689L49.1579 25.9153L53.9205 39.2935C54.034 39.6108 54.0257 39.9589 53.8974 40.2705C53.7691 40.5821 53.5298 40.8351 53.2259 40.9806L35.9996 49.2566L18.7733 40.9806C18.4695 40.8349 18.2305 40.5819 18.1023 40.2703C17.9742 39.9587 17.9661 39.6107 18.0796 39.2935L22.8413 25.9153L26.8333 24.6689M35.9996 27.363C37.1905 25.6078 41.3373 22.8057 44.478 22.7434L49.8361 37.7396C46.1408 38.6951 39.7455 41.3124 35.9996 44.9454C32.2537 41.3114 25.8584 38.6941 22.1641 37.7396L27.5212 22.7434C30.6619 22.8057 34.8087 25.6078 35.9996 27.363Z" stroke="white" stroke-width="2.34" stroke-linecap="round" stroke-linejoin="round"/>
</svg>
