<svg width="63" height="63" viewBox="0 0 63 63" fill="none" xmlns="http://www.w3.org/2000/svg">
<rect x="2.56093" y="2.32607" width="57.8783" height="57.8783" rx="28.9391" stroke="#CBEFFB" stroke-width="3.61739"/>
<path fill-rule="evenodd" clip-rule="evenodd" d="M26.2466 20.4001C26.6894 20.2064 26.8913 19.6906 26.6977 19.2478C26.5041 18.805 25.9882 18.603 25.5454 18.7967C22.9126 19.948 20.6786 21.8386 19.1047 24.2057C18.8371 24.6081 18.9465 25.1513 19.3489 25.4188C19.7513 25.6864 20.2944 25.5771 20.562 25.1746C21.9518 23.0844 23.9245 21.4155 26.2466 20.4001ZM37.4546 18.7967C37.0118 18.603 36.4959 18.805 36.3023 19.2478C36.1087 19.6906 36.3107 20.2064 36.7534 20.4001C39.0755 21.4155 41.0483 23.0844 42.438 25.1746C42.7056 25.5771 43.2487 25.6864 43.6511 25.4188C44.0536 25.1513 44.1629 24.6081 43.8953 24.2057C42.3215 21.8386 40.0875 19.948 37.4546 18.7967ZM40.1908 39.3108C41.6888 37.4208 42.5833 35.0307 42.5833 32.4318C42.5833 26.3106 37.6211 21.3484 31.5 21.3484C25.3788 21.3484 20.4167 26.3106 20.4167 32.4318C20.4167 35.0307 21.3112 37.4207 22.8091 39.3106L20.3202 42.3808C20.0159 42.7562 20.0735 43.3072 20.4489 43.6115C20.8243 43.9158 21.3753 43.8582 21.6797 43.4828L24.0132 40.6043C25.9854 42.4119 28.6139 43.5151 31.5 43.5151C34.3861 43.5151 37.0145 42.412 38.9866 40.6044L41.3203 43.4828C41.6246 43.8582 42.1756 43.9158 42.551 43.6115C42.9264 43.3072 42.984 42.7561 42.6796 42.3808L40.1908 39.3108ZM31.4999 25.7234C31.9832 25.7234 32.3749 26.1152 32.3749 26.5984L32.3749 31.9635L35.4853 34.0371C35.8874 34.3051 35.996 34.8484 35.728 35.2505C35.4599 35.6525 34.9166 35.7612 34.5146 35.4931L31.0146 33.1598C30.7711 32.9975 30.6249 32.7243 30.6249 32.4318L30.6249 26.5984C30.6249 26.1152 31.0167 25.7234 31.4999 25.7234Z" fill="#CBEFFB"/>
</svg>
