<svg width="100" height="100" viewBox="0 0 100 100" fill="none" xmlns="http://www.w3.org/2000/svg">
<circle cx="49.3916" cy="49" r="47.5661" stroke="url(#paint0_linear_510_133)" stroke-width="0.987411"/>
<g filter="url(#filter0_bd_510_133)">
<circle cx="49.3886" cy="48.9999" r="40.5505" fill="url(#paint1_linear_510_133)" shape-rendering="crispEdges"/>
</g>
<g filter="url(#filter1_f_510_133)">
<path fill-rule="evenodd" clip-rule="evenodd" d="M39.6472 56.3648C40.386 55.8966 41.2203 55.478 42.0349 55.0726C43.0367 54.574 44.4532 54.9526 43.7816 56.0373C43.47 56.5406 42.9371 57.087 42.2354 57.5392C40.7807 58.4763 38.4989 59.6921 37.2818 60.308L36.1163 62.5895L36.6435 63.2161L48.6806 56.553L42.9608 53.3102L40.5335 54.6233L39.6472 56.3648ZM66.9283 46.5307L49.7124 56.3648V55.2157L65.8507 46.2799L63.0183 41.4366L64.0913 41.9422L66.9283 46.5307ZM59.2506 56.3648C58.5119 55.8966 57.6775 55.478 56.863 55.0726C55.8612 54.574 54.4446 54.9526 55.1163 56.0373C55.4281 56.5406 55.9608 57.087 56.6625 57.5392C58.1172 58.4763 60.3989 59.6921 61.6162 60.308L62.7815 62.5895L62.2543 63.2161L50.2172 56.553L55.937 53.3102L58.3646 54.6233L59.2506 56.3648ZM49.4488 48.6463L49.4344 48.6742C49.4222 48.5395 49.3354 48.3614 49.2754 48.2477C46.9008 43.3449 42.4463 43.206 37.5892 41.2525C37.4946 41.2123 37.4633 41.2066 37.3762 41.1608L37.1429 41.0619L34.3764 46.1023L35.6997 46.8532C40.3213 49.3751 45.1776 48.4542 49.4344 54.7021C49.4381 54.7 49.4428 54.6961 49.4488 54.6906C49.4548 54.6961 49.4595 54.7 49.4629 54.7021C53.72 48.4542 58.5761 49.3751 63.1979 46.8532L64.5212 46.1023L61.7548 41.0619L61.5211 41.1608C61.4343 41.2066 61.403 41.2123 61.3081 41.2525C56.451 43.206 51.9967 43.3449 49.6222 48.2477C49.5622 48.3614 49.4751 48.5395 49.4629 48.6742L49.4488 48.6463ZM31.9695 46.5307L49.1854 56.3648V55.2157L33.0472 46.2799L35.8795 41.4366L34.8069 41.9422L31.9695 46.5307Z" fill="white"/>
<path fill-rule="evenodd" clip-rule="evenodd" d="M37.0487 29.4299C38.3923 28.5885 39.8282 27.8806 41.3379 27.3252L39.6326 22.6908C37.8025 23.3643 36.0615 24.2226 34.4321 25.2429L37.0487 29.4299Z" fill="white" fill-opacity="0.4"/>
<path fill-rule="evenodd" clip-rule="evenodd" d="M32.7621 32.8805L29.2351 29.4262C27.8839 30.8061 26.6733 32.3238 25.6267 33.9571L29.786 36.6172C30.6494 35.2702 31.6477 34.0184 32.7621 32.8805Z" fill="white" fill-opacity="0.5"/>
<path fill-rule="evenodd" clip-rule="evenodd" d="M27.3859 41.5708L22.7171 39.9631C22.0957 41.7682 21.6525 43.6563 21.4087 45.6061L26.307 46.2251C26.508 44.6168 26.8736 43.0594 27.3859 41.5708Z" fill="white" fill-opacity="0.6"/>
<path fill-rule="evenodd" clip-rule="evenodd" d="M26.2699 51.7278L21.3635 52.2783C21.5805 54.2326 21.9969 56.1263 22.5927 57.939L27.2837 56.3967C26.7922 54.9019 26.4485 53.3398 26.2699 51.7278Z" fill="white" fill-opacity="0.7"/>
<path fill-rule="evenodd" clip-rule="evenodd" d="M29.6139 61.3833L25.4177 63.985C26.4419 65.6332 27.6312 67.1676 28.9628 68.5657L32.5378 65.1612C31.4395 64.0085 30.4586 62.7426 29.6139 61.3833Z" fill="white" fill-opacity="0.8"/>
<path fill-rule="evenodd" clip-rule="evenodd" d="M36.7765 68.6709L34.1018 72.8209C35.7174 73.8641 37.4464 74.7468 39.2663 75.4456L41.036 70.8356C39.5349 70.2591 38.1091 69.5311 36.7765 68.6709Z" fill="white"/>
<path fill-rule="evenodd" clip-rule="evenodd" d="M49.3621 25.9019C62.1948 25.9019 72.5979 36.3049 72.5979 49.1376C72.5979 61.9702 62.1948 72.3732 49.3621 72.3732C48.3479 72.3732 47.349 72.3081 46.3691 72.1821L45.7332 77.0781C46.9214 77.2311 48.1325 77.3096 49.3621 77.3096C64.9214 77.3096 77.5345 64.6965 77.5345 49.1376C77.5345 33.5786 64.9214 20.9652 49.3621 20.9652C48.267 20.9652 47.1866 21.0273 46.1235 21.1495L46.6911 26.0536C47.5678 25.9535 48.4589 25.9019 49.3621 25.9019Z" fill="white"/>
</g>
<path fill-rule="evenodd" clip-rule="evenodd" d="M39.6472 56.3648C40.386 55.8966 41.2203 55.478 42.0349 55.0726C43.0367 54.574 44.4532 54.9526 43.7816 56.0373C43.47 56.5406 42.9371 57.087 42.2354 57.5392C40.7807 58.4763 38.4989 59.6921 37.2818 60.308L36.1163 62.5895L36.6435 63.2161L48.6806 56.553L42.9608 53.3102L40.5335 54.6233L39.6472 56.3648ZM66.9283 46.5307L49.7124 56.3648V55.2157L65.8507 46.2799L63.0183 41.4366L64.0913 41.9422L66.9283 46.5307ZM59.2506 56.3648C58.5119 55.8966 57.6775 55.478 56.863 55.0726C55.8612 54.574 54.4446 54.9526 55.1163 56.0373C55.4281 56.5406 55.9608 57.087 56.6625 57.5392C58.1172 58.4763 60.3989 59.6921 61.6162 60.308L62.7815 62.5895L62.2543 63.2161L50.2172 56.553L55.937 53.3102L58.3646 54.6233L59.2506 56.3648ZM49.4488 48.6463L49.4344 48.6742C49.4222 48.5395 49.3354 48.3614 49.2754 48.2477C46.9008 43.3449 42.4463 43.206 37.5892 41.2525C37.4946 41.2123 37.4633 41.2066 37.3762 41.1608L37.1429 41.0619L34.3764 46.1023L35.6997 46.8532C40.3213 49.3751 45.1776 48.4542 49.4344 54.7021C49.4381 54.7 49.4428 54.6961 49.4488 54.6906C49.4548 54.6961 49.4595 54.7 49.4629 54.7021C53.72 48.4542 58.5761 49.3751 63.1979 46.8532L64.5212 46.1023L61.7548 41.0619L61.5211 41.1608C61.4343 41.2066 61.403 41.2123 61.3081 41.2525C56.451 43.206 51.9967 43.3449 49.6222 48.2477C49.5622 48.3614 49.4751 48.5395 49.4629 48.6742L49.4488 48.6463ZM31.9695 46.5307L49.1854 56.3648V55.2157L33.0472 46.2799L35.8795 41.4366L34.8069 41.9422L31.9695 46.5307Z" fill="white"/>
<path fill-rule="evenodd" clip-rule="evenodd" d="M37.0487 29.4299C38.3923 28.5885 39.8282 27.8806 41.3379 27.3252L39.6326 22.6908C37.8025 23.3643 36.0615 24.2226 34.4321 25.2429L37.0487 29.4299Z" fill="white" fill-opacity="0.4"/>
<path fill-rule="evenodd" clip-rule="evenodd" d="M32.7621 32.8805L29.2351 29.4262C27.8839 30.8061 26.6733 32.3238 25.6267 33.9571L29.786 36.6172C30.6494 35.2702 31.6477 34.0184 32.7621 32.8805Z" fill="white" fill-opacity="0.5"/>
<path fill-rule="evenodd" clip-rule="evenodd" d="M27.3859 41.5708L22.7171 39.9631C22.0957 41.7682 21.6525 43.6563 21.4087 45.6061L26.307 46.2251C26.508 44.6168 26.8736 43.0594 27.3859 41.5708Z" fill="white" fill-opacity="0.6"/>
<path fill-rule="evenodd" clip-rule="evenodd" d="M26.2699 51.7278L21.3635 52.2783C21.5805 54.2326 21.9969 56.1263 22.5927 57.939L27.2837 56.3967C26.7922 54.9019 26.4485 53.3398 26.2699 51.7278Z" fill="white" fill-opacity="0.7"/>
<path fill-rule="evenodd" clip-rule="evenodd" d="M29.6139 61.3833L25.4177 63.985C26.4419 65.6332 27.6312 67.1676 28.9628 68.5657L32.5378 65.1612C31.4395 64.0085 30.4586 62.7426 29.6139 61.3833Z" fill="white" fill-opacity="0.8"/>
<path fill-rule="evenodd" clip-rule="evenodd" d="M36.7765 68.6709L34.1018 72.8209C35.7174 73.8641 37.4464 74.7468 39.2663 75.4456L41.036 70.8356C39.5349 70.2591 38.1091 69.5311 36.7765 68.6709Z" fill="white"/>
<path fill-rule="evenodd" clip-rule="evenodd" d="M49.3621 25.9019C62.1948 25.9019 72.5979 36.3049 72.5979 49.1376C72.5979 61.9702 62.1948 72.3732 49.3621 72.3732C48.3479 72.3732 47.349 72.3081 46.3691 72.1821L45.7332 77.0781C46.9214 77.2311 48.1325 77.3096 49.3621 77.3096C64.9214 77.3096 77.5345 64.6965 77.5345 49.1376C77.5345 33.5786 64.9214 20.9652 49.3621 20.9652C48.267 20.9652 47.1866 21.0273 46.1235 21.1495L46.6911 26.0536C47.5678 25.9535 48.4589 25.9019 49.3621 25.9019Z" fill="white"/>
<defs>
<filter id="filter0_bd_510_133" x="-4.53371" y="-4.92238" width="107.845" height="107.845" filterUnits="userSpaceOnUse" color-interpolation-filters="sRGB">
<feFlood flood-opacity="0" result="BackgroundImageFix"/>
<feGaussianBlur in="BackgroundImageFix" stdDeviation="6.68592"/>
<feComposite in2="SourceAlpha" operator="in" result="effect1_backgroundBlur_510_133"/>
<feColorMatrix in="SourceAlpha" type="matrix" values="0 0 0 0 0 0 0 0 0 0 0 0 0 0 0 0 0 0 127 0" result="hardAlpha"/>
<feOffset dx="0.811009" dy="0.811009"/>
<feGaussianBlur stdDeviation="4.46055"/>
<feComposite in2="hardAlpha" operator="out"/>
<feColorMatrix type="matrix" values="0 0 0 0 0 0 0 0 0 0 0 0 0 0 0 0 0 0 0.2 0"/>
<feBlend mode="normal" in2="effect1_backgroundBlur_510_133" result="effect2_dropShadow_510_133"/>
<feBlend mode="normal" in="SourceGraphic" in2="effect2_dropShadow_510_133" result="shape"/>
</filter>
<filter id="filter1_f_510_133" x="18.8604" y="18.4621" width="61.1771" height="61.3506" filterUnits="userSpaceOnUse" color-interpolation-filters="sRGB">
<feFlood flood-opacity="0" result="BackgroundImageFix"/>
<feBlend mode="normal" in="SourceGraphic" in2="BackgroundImageFix" result="shape"/>
<feGaussianBlur stdDeviation="1.25156" result="effect1_foregroundBlur_510_133"/>
</filter>
<linearGradient id="paint0_linear_510_133" x1="1.33179" y1="15.7489" x2="103.004" y2="17.0605" gradientUnits="userSpaceOnUse">
<stop stop-color="#2774F6"/>
<stop offset="1" stop-color="#2774F6" stop-opacity="0"/>
</linearGradient>
<linearGradient id="paint1_linear_510_133" x1="42.4542" y1="-12.6207" x2="85.5324" y2="63.2983" gradientUnits="userSpaceOnUse">
<stop stop-color="#2577FF" stop-opacity="0.96"/>
<stop offset="1" stop-color="#2C7BFF" stop-opacity="0.92"/>
</linearGradient>
</defs>
</svg>
